<?xml version="1.0" standalone="no"?>
<!DOCTYPE svg PUBLIC "-//W3C//DTD SVG 20010904//EN"
 "http://www.w3.org/TR/2001/REC-SVG-20010904/DTD/svg10.dtd">
<svg version="1.0" xmlns="http://www.w3.org/2000/svg"
 width="300.000000pt" height="300.000000pt" viewBox="0 0 300.000000 300.000000"
 preserveAspectRatio="xMidYMid meet">
<metadata>
Created by potrace 1.10, written by Peter Selinger 2001-2011
</metadata>
<g transform="translate(0.000000,300.000000) scale(0.100000,-0.100000)"
fill="#000000" stroke="none">
<path d="M1400 2983 c0 -8 4 -12 8 -9 5 3 21 7 36 10 43 8 42 14 -3 13 -28 -1
-41 -5 -41 -14z"/>
<path d="M1605 2991 c11 -5 26 -6 34 -3 7 3 17 -1 22 -9 7 -11 9 -11 9 4 0 14
-8 17 -42 16 -32 0 -38 -2 -23 -8z"/>
<path d="M1684 2991 c4 -5 14 -7 22 -4 9 3 20 0 26 -8 8 -12 9 -11 5 1 -2 8
-16 16 -31 18 -18 2 -26 0 -22 -7z"/>
<path d="M1816 2980 c64 -29 204 -186 188 -211 -3 -6 -18 10 -34 38 -24 42
-100 116 -100 98 0 -8 27 -35 35 -35 24 0 84 -111 86 -158 l1 -27 8 25 c6 22
8 23 15 8 4 -10 12 -18 18 -18 6 0 19 -7 29 -17 28 -25 22 1 -12 50 -16 25
-30 49 -30 54 0 6 -13 28 -29 50 -16 23 -27 44 -23 49 4 4 3 5 -3 2 -5 -3 -37
18 -70 48 -39 35 -54 54 -42 54 9 0 25 -9 34 -20 13 -15 20 -17 30 -8 24 20
46 -10 140 -195 25 -48 54 -92 64 -98 15 -8 17 -7 12 8 -4 10 -14 26 -23 35
-9 9 -35 54 -60 100 -71 134 -116 191 -132 166 -7 -12 -12 -4 -9 14 0 4 -29 7
-66 7 l-66 -1 39 -18z m214 -238 c0 -15 -2 -15 -10 -2 -13 20 -13 33 0 25 6
-3 10 -14 10 -23z"/>
<path d="M1575 2970 c16 -10 31 -17 34 -14 7 6 -32 33 -49 34 -8 0 -2 -9 15
-20z"/>
<path d="M1460 2968 c-19 -5 -38 -14 -43 -19 -4 -5 -4 -7 -1 -4 4 3 14 -1 22
-8 10 -8 13 -8 9 -1 -4 7 0 15 9 18 26 10 74 7 74 -5 0 -5 4 -8 9 -5 5 3 23
-10 41 -30 17 -20 34 -33 37 -30 10 10 -83 96 -103 95 -11 0 -35 -5 -54 -11z"/>
<path d="M1769 2959 c-10 -6 -7 -9 12 -9 15 0 38 -9 53 -21 14 -11 26 -16 26
-11 0 24 -69 55 -91 41z"/>
<path d="M2005 2960 c3 -5 8 -10 11 -10 2 0 4 5 4 10 0 6 -5 10 -11 10 -5 0
-7 -4 -4 -10z"/>
<path d="M1680 2897 c59 -60 67 -65 67 -42 0 8 -4 12 -9 9 -4 -3 -31 16 -60
42 l-53 48 55 -57z"/>
<path d="M1935 2927 c10 -15 20 -25 23 -22 3 3 -5 16 -17 28 l-23 22 17 -28z"/>
<path d="M1480 2936 c0 -2 9 -6 20 -9 11 -3 18 -1 14 4 -5 9 -34 13 -34 5z"/>
<path d="M1990 2936 c0 -2 7 -7 16 -10 8 -3 12 -2 9 4 -6 10 -25 14 -25 6z"/>
<path d="M1368 2917 c21 -6 31 -15 28 -24 -3 -7 -1 -13 4 -13 21 0 9 38 -12
44 -39 10 -55 5 -20 -7z"/>
<path d="M1633 2908 c30 -26 33 -34 15 -41 -7 -2 -5 -3 5 -1 17 2 75 -61 65
-72 -3 -3 -15 7 -27 21 -11 15 -25 25 -31 23 -6 -2 8 -21 30 -43 27 -26 39
-33 34 -20 -7 18 -6 19 11 5 18 -14 18 -13 -1 18 -27 48 -82 111 -107 123 -17
8 -15 4 6 -13z"/>
<path d="M1700 2915 c7 -9 15 -13 17 -11 7 7 -7 26 -19 26 -6 0 -6 -6 2 -15z"/>
<path d="M1787 2899 c9 -19 21 -37 27 -41 5 -3 11 -14 12 -23 3 -23 33 -65 44
-62 5 1 21 -11 36 -28 l26 -30 -25 35 c-13 19 -28 34 -32 32 -9 -4 -45 49 -40
59 3 3 -4 14 -15 24 -11 10 -20 24 -20 30 0 7 -7 18 -15 25 -12 10 -11 6 2
-21z"/>
<path d="M2190 2922 c0 -4 9 -13 20 -20 11 -7 20 -9 20 -4 0 4 -9 13 -20 20
-11 7 -20 9 -20 4z"/>
<path d="M1447 2896 c15 -13 30 -22 33 -19 6 6 -38 43 -52 43 -5 0 4 -11 19
-24z"/>
<path d="M1730 2911 c0 -5 7 -14 14 -21 8 -6 25 -33 38 -58 12 -26 42 -68 66
-94 28 -30 41 -52 36 -60 -4 -7 -4 -10 1 -6 4 4 14 3 22 -3 10 -9 13 -8 13 1
0 6 -25 37 -55 69 -30 32 -55 65 -55 74 0 10 -4 17 -9 17 -5 0 -16 17 -24 39
-14 34 -47 64 -47 42z"/>
<path d="M1325 2900 c11 -5 29 -8 40 -8 16 0 15 2 -5 8 -34 11 -60 11 -35 0z"/>
<path d="M1540 2879 c37 -38 31 -52 -8 -18 -25 22 -25 22 3 -9 16 -18 49 -44
73 -58 27 -16 40 -29 33 -33 -7 -5 -2 -12 14 -21 46 -25 35 -4 -40 76 -41 43
-75 82 -75 87 0 4 -7 7 -16 7 -11 0 -6 -9 16 -31z"/>
<path d="M1820 2905 c0 -3 8 -14 18 -26 9 -12 28 -36 42 -53 14 -17 32 -43 39
-58 19 -37 54 -74 58 -61 6 17 -16 65 -27 58 -6 -4 -10 -3 -9 2 2 4 -6 27 -16
51 -13 32 -20 40 -27 30 -7 -10 -11 -10 -14 -1 -14 34 -64 79 -64 58z"/>
<path d="M2050 2908 c0 -4 16 -28 35 -54 19 -25 35 -40 35 -32 -1 14 -70 99
-70 86z"/>
<path d="M2086 2898 c3 -4 11 -8 19 -8 14 0 55 -75 55 -101 0 -8 6 -23 14 -34
8 -11 19 -39 26 -63 7 -23 17 -42 22 -42 4 0 8 -7 8 -15 0 -8 4 -15 10 -15 5
0 -2 26 -16 58 -65 141 -82 220 -34 148 26 -37 44 -48 33 -20 -8 22 -52 64
-63 61 -5 -1 -15 7 -23 17 -14 19 -62 32 -51 14z"/>
<path d="M2180 2896 c0 -2 8 -10 18 -17 15 -13 16 -12 3 4 -13 16 -21 21 -21
13z"/>
<path d="M1284 2881 c8 -12 46 -21 46 -11 0 8 -24 20 -41 20 -6 0 -8 -4 -5 -9z"/>
<path d="M1220 2870 c0 -5 5 -10 11 -10 5 0 7 5 4 10 -3 6 -8 10 -11 10 -2 0
-4 -4 -4 -10z"/>
<path d="M1430 2865 c7 -8 23 -15 36 -15 24 0 64 -46 57 -66 -2 -6 15 -19 37
-29 26 -12 39 -23 36 -32 -3 -7 -1 -13 4 -13 6 0 10 5 10 10 0 6 7 10 16 10 8
0 12 -5 9 -10 -7 -11 5 -17 53 -24 32 -4 43 6 20 20 -7 4 -23 8 -36 9 -13 0
-33 12 -44 25 -15 18 -21 21 -28 11 -9 -15 -23 -3 -73 63 -18 24 -36 36 -52
36 -13 0 -27 5 -30 10 -3 6 -11 10 -17 10 -7 0 -6 -6 2 -15z"/>
<path d="M2256 2865 c3 -8 10 -15 14 -15 5 0 14 -16 21 -35 7 -19 19 -35 26
-35 7 0 13 -5 13 -10 0 -6 15 -25 34 -43 19 -17 36 -43 39 -57 4 -24 4 -24 6
3 1 19 -13 46 -40 82 -23 30 -45 55 -50 55 -4 0 -10 8 -14 18 -3 9 -17 25 -30
35 -20 14 -24 15 -19 2z"/>
<path d="M2059 2854 c5 -11 22 -44 37 -74 58 -118 61 -124 83 -125 29 -2 27
23 -4 37 -15 7 -39 40 -65 89 -22 43 -45 81 -51 85 -7 4 -7 0 0 -12z"/>
<path d="M2220 2861 c0 -5 7 -15 17 -22 15 -13 15 -12 4 9 -12 23 -21 28 -21
13z"/>
<path d="M1666 2788 c79 -85 94 -96 94 -71 1 17 2 16 18 -2 9 -11 26 -27 37
-35 11 -8 4 3 -15 23 -19 21 -46 41 -60 44 -14 3 -49 30 -78 60 -78 78 -75 64
4 -19z m84 -58 c0 -5 -2 -10 -4 -10 -3 0 -8 5 -11 10 -3 6 -1 10 4 10 6 0 11
-4 11 -10z"/>
<path d="M1249 2837 c5 -5 17 -5 28 2 16 9 15 10 -9 9 -16 -2 -24 -6 -19 -11z"/>
<path d="M1376 2843 c-6 -6 38 -32 92 -54 38 -15 17 6 -27 27 -23 10 -41 22
-41 27 0 9 -14 9 -24 0z"/>
<path d="M1757 2813 c3 -10 13 -26 21 -35 8 -10 11 -18 7 -18 -5 0 11 -19 34
-41 52 -51 64 -46 17 7 -20 21 -43 54 -53 72 -19 34 -37 44 -26 15z"/>
<path d="M1064 2802 c4 -7 3 -12 -3 -12 -6 0 -15 -9 -21 -20 -15 -28 1 -24 23
5 12 17 14 26 5 31 -7 4 -8 3 -4 -4z"/>
<path d="M1114 2802 c-10 -7 -27 -42 -20 -42 2 0 11 11 20 25 17 26 17 29 0
17z"/>
<path d="M1495 2800 c3 -5 11 -10 16 -10 6 0 7 5 4 10 -3 6 -11 10 -16 10 -6
0 -7 -4 -4 -10z"/>
<path d="M2245 2795 c4 -11 9 -35 12 -53 3 -18 10 -35 16 -39 6 -4 8 3 4 18
-4 13 -7 31 -7 40 0 8 -7 24 -16 35 -15 19 -16 19 -9 -1z"/>
<path d="M1361 2791 c-8 -5 -21 -7 -29 -3 -10 3 -13 1 -8 -6 4 -7 18 -12 32
-12 14 0 23 4 19 9 -3 5 3 12 12 14 13 3 14 5 3 6 -8 0 -21 -3 -29 -8z"/>
<path d="M2140 2759 c12 -23 24 -38 27 -35 5 5 -35 76 -43 76 -2 0 5 -18 16
-41z"/>
<path d="M1128 2771 c-22 -22 -24 -38 -3 -21 8 7 25 10 40 6 14 -4 25 -2 25 4
0 5 9 10 21 10 12 0 17 -4 14 -11 -5 -7 8 -8 41 -3 27 3 51 8 52 9 8 7 -110
17 -134 11 -17 -5 -23 -3 -19 4 10 17 -19 10 -37 -9z"/>
<path d="M1405 2767 c23 -19 45 -22 45 -7 0 6 -6 10 -14 10 -8 0 -23 3 -33 6
-16 6 -16 5 2 -9z"/>
<path d="M2220 2757 c0 -28 32 -106 46 -111 8 -3 14 -1 14 4 0 6 -4 10 -9 10
-5 0 -17 25 -26 55 -15 53 -25 69 -25 42z"/>
<path d="M1375 2750 c-3 -5 1 -10 10 -10 9 0 13 5 10 10 -3 6 -8 10 -10 10 -2
0 -7 -4 -10 -10z"/>
<path d="M1475 2751 c-3 -6 4 -15 15 -21 11 -6 20 -17 20 -24 0 -8 10 -11 30
-8 35 5 38 12 9 30 -16 11 -19 11 -13 1 4 -7 -6 -3 -23 9 -18 13 -34 18 -38
13z"/>
<path d="M1080 2730 c6 -11 15 -20 20 -20 6 0 5 9 -2 20 -7 11 -16 20 -21 20
-4 0 -3 -9 3 -20z"/>
<path d="M1320 2740 c0 -5 7 -7 15 -4 8 4 15 8 15 10 0 2 -7 4 -15 4 -8 0 -15
-4 -15 -10z"/>
<path d="M1353 2723 c9 -2 23 -2 30 0 6 3 -1 5 -18 5 -16 0 -22 -2 -12 -5z"/>
<path d="M1416 2721 c-3 -5 0 -16 9 -24 13 -13 13 -16 -2 -21 -9 -4 -19 -2
-23 4 -5 8 -15 7 -36 -1 -16 -7 -31 -13 -34 -13 -3 -1 -14 -7 -25 -14 -18 -11
-18 -12 8 -6 17 4 27 2 27 -6 0 -6 -4 -8 -10 -5 -5 3 -10 2 -10 -4 0 -6 -15
-7 -37 -4 -22 3 -35 2 -30 -3 9 -9 13 -10 45 -13 15 -1 15 -3 2 -11 -8 -5 -11
-10 -7 -10 4 0 25 11 45 25 20 14 31 25 24 25 -6 0 -12 5 -12 11 0 7 9 9 21 6
24 -6 99 20 99 35 0 5 5 6 10 3 6 -3 10 0 10 8 0 14 -20 27 -41 27 -4 0 -6 -8
-3 -17 5 -17 4 -17 -9 0 -9 10 -18 14 -21 8z"/>
<path d="M2293 2716 c4 -10 7 -24 7 -32 0 -8 4 -14 8 -14 13 0 8 36 -7 51 -13
11 -14 11 -8 -5z"/>
<path d="M1260 2710 c-13 -9 -13 -10 0 -10 8 0 22 5 30 10 13 9 13 10 0 10 -8
0 -22 -5 -30 -10z"/>
<path d="M1215 2700 c-3 -5 1 -10 9 -10 9 0 16 5 16 10 0 6 -4 10 -9 10 -6 0
-13 -4 -16 -10z"/>
<path d="M1276 2677 c-15 -10 -32 -20 -39 -21 -6 -1 -21 -7 -32 -14 -38 -23
25 -3 90 28 44 22 53 29 33 28 -15 -1 -38 -11 -52 -21z"/>
<path d="M1090 2681 c0 -5 9 -7 20 -4 11 3 20 7 20 9 0 2 -9 4 -20 4 -11 0
-20 -4 -20 -9z"/>
<path d="M1158 2663 c7 -3 16 -2 19 1 4 3 -2 6 -13 5 -11 0 -14 -3 -6 -6z"/>
<path d="M1855 2661 c-3 -5 -1 -12 5 -16 5 -3 10 1 10 9 0 18 -6 21 -15 7z"/>
<path d="M999 2634 c-5 -15 -8 -29 -5 -31 2 -2 8 10 14 26 13 38 5 41 -9 5z"/>
<path d="M1060 2635 c-16 -19 0 -19 26 0 16 12 16 14 3 15 -9 0 -22 -7 -29
-15z"/>
<path d="M2260 2626 c0 -3 23 -35 51 -73 94 -124 129 -243 115 -388 -2 -16 -4
-32 -5 -35 -8 -16 -11 -160 -4 -160 10 0 11 2 16 65 5 52 6 53 17 35 8 -12 10
-9 6 10 -14 72 -16 101 -9 97 4 -3 8 12 8 34 1 21 -2 34 -5 28 -6 -9 -12 52
-11 114 0 15 -4 27 -9 27 -6 0 -10 11 -10 24 0 13 -7 29 -15 36 -20 17 -19 30
3 31 13 0 12 2 -5 9 -16 7 -21 14 -16 27 3 10 3 15 -2 11 -12 -11 -35 11 -35
34 0 10 -4 16 -10 13 -5 -3 -12 6 -16 21 -5 19 -9 22 -15 12 -7 -10 -9 -9 -9
3 0 9 -7 20 -16 23 -19 7 -24 8 -24 2z"/>
<path d="M2377 2617 c-10 -27 4 -80 26 -96 19 -14 61 -100 53 -109 -3 -2 4
-27 16 -56 18 -46 20 -66 15 -196 -3 -107 -9 -153 -21 -175 -9 -16 -16 -37
-16 -46 0 -8 -4 -19 -8 -25 -5 -5 -17 -54 -27 -109 -17 -99 -16 -116 10 -190
6 -16 5 -17 -4 -5 -8 11 -11 2 -11 -40 0 -57 -43 -255 -60 -275 -5 -7 -8 -14
-5 -16 2 -3 -4 -38 -15 -79 -10 -40 -18 -76 -18 -79 2 -10 -20 -59 -29 -64
-14 -9 -15 -85 -2 -93 9 -5 10 2 5 27 -5 26 -4 31 6 21 17 -17 28 -15 28 6 0
13 -2 14 -9 4 -6 -10 -10 -9 -14 8 -4 14 2 28 20 44 18 17 25 35 27 67 1 24 5
50 10 57 4 7 9 22 12 35 2 12 6 33 10 47 3 14 6 30 8 37 1 7 5 16 9 19 4 4 7
18 7 30 0 13 5 26 10 29 6 4 8 10 5 15 -3 5 -1 20 5 34 20 53 23 84 25 256 1
153 4 183 24 240 13 36 25 74 27 85 2 11 6 31 9 45 3 14 6 70 7 125 2 77 -2
112 -17 153 -10 28 -22 52 -25 52 -4 0 -6 10 -5 22 1 21 -29 86 -46 98 -4 3
-14 30 -21 60 -10 38 -16 49 -21 37z m53 -909 c0 -32 -16 -19 -18 15 -2 24 0
28 8 17 5 -8 10 -23 10 -32z"/>
<path d="M1210 2610 c-8 -5 -24 -7 -34 -4 -16 5 -17 4 -5 -8 17 -19 30 -18 52
4 18 19 11 24 -13 8z"/>
<path d="M1042 2576 c-20 -19 -35 -37 -32 -39 3 -3 24 12 47 34 23 21 38 39
32 39 -5 0 -26 -15 -47 -34z"/>
<path d="M1250 2586 c0 -8 5 -18 10 -21 6 -3 10 1 10 9 0 8 -4 18 -10 21 -5 3
-10 -1 -10 -9z"/>
<path d="M981 2574 c0 -11 3 -14 6 -6 3 7 2 16 -1 19 -3 4 -6 -2 -5 -13z"/>
<path d="M1098 2583 c6 -2 18 -2 25 0 6 3 1 5 -13 5 -14 0 -19 -2 -12 -5z"/>
<path d="M1150 2570 c-8 -5 -12 -12 -9 -15 4 -3 12 1 19 10 14 17 11 19 -10 5z"/>
<path d="M1213 2565 c-31 -13 -29 -21 5 -20 15 0 26 3 25 8 -4 19 -10 22 -30
12z"/>
<path d="M1075 2550 c-16 -7 -17 -9 -3 -9 9 -1 20 4 23 9 7 11 7 11 -20 0z"/>
<path d="M1174 2520 c-24 -10 -41 -30 -25 -30 6 0 7 -8 4 -17 -6 -15 -5 -16 9
-3 10 9 12 17 6 19 -6 2 0 12 13 22 26 20 25 22 -7 9z"/>
<path d="M972 2498 c-24 -49 -43 -221 -45 -398 l-2 -145 -27 -9 c-16 -6 -28
-16 -28 -23 0 -7 -4 -13 -9 -13 -5 0 -12 -11 -15 -25 -3 -13 -11 -37 -18 -52
-14 -34 -18 -104 -4 -96 5 3 7 -5 4 -20 -3 -15 -1 -24 4 -21 5 4 9 -2 8 -12
-1 -11 -1 -21 0 -24 4 -12 10 -59 15 -114 2 -33 9 -64 15 -70 5 -5 10 -16 10
-23 0 -18 29 -44 73 -67 20 -11 37 -24 38 -30 8 -101 16 -151 28 -174 12 -22
9 -66 -11 -154 -5 -27 -13 -46 -17 -43 -10 6 -51 -77 -51 -104 0 -23 -15 -29
-23 -8 -9 21 4 -56 16 -93 6 -19 10 -39 9 -44 -2 -4 1 -13 6 -20 5 -6 15 -32
22 -59 7 -26 17 -50 21 -53 5 -3 9 -12 9 -20 0 -9 7 -22 15 -31 8 -8 13 -19
10 -24 -4 -5 -2 -9 4 -9 6 0 13 -11 17 -25 3 -14 10 -25 15 -25 5 0 9 -10 9
-22 0 -12 3 -18 7 -15 3 4 12 -1 19 -11 18 -23 17 -33 -3 -25 -11 4 -14 3 -9
-6 5 -7 14 -10 21 -7 8 3 20 -5 28 -17 8 -12 39 -48 69 -79 46 -49 52 -59 41
-71 -12 -12 -12 -14 1 -14 8 0 13 4 10 9 -3 4 0 8 7 8 19 0 86 -65 81 -80 -3
-7 0 -10 6 -6 10 6 49 -11 102 -43 8 -5 24 -12 35 -16 19 -6 19 -7 -4 -26 -13
-10 -36 -19 -52 -19 -15 0 -30 -4 -33 -9 -3 -5 10 -7 29 -4 24 3 35 1 35 -8 0
-7 9 -3 20 9 25 26 43 28 66 5 16 -17 44 -27 44 -16 0 3 -15 18 -32 34 -18 16
-27 29 -20 29 8 0 29 -15 48 -34 36 -36 41 -37 24 -5 -7 13 -7 19 0 19 5 0 10
-4 10 -9 0 -4 30 -7 67 -5 43 1 71 -2 75 -9 5 -8 8 -6 8 6 0 10 8 17 20 17 11
0 20 6 20 13 0 11 -12 12 -61 4 -97 -16 -239 14 -337 71 -100 58 -230 189
-310 311 -64 98 -138 269 -148 343 -8 56 18 143 53 180 24 25 26 35 29 128 1
55 -1 98 -5 96 -4 -3 -8 32 -10 77 -1 45 -7 87 -12 93 -7 9 -6 15 4 21 10 5
12 14 6 28 -6 17 -8 17 -8 3 -1 -12 -9 -18 -27 -18 -54 0 -79 28 -93 105 -8
44 0 62 13 29 4 -9 9 -14 13 -10 4 3 -3 16 -14 29 -13 14 -23 41 -26 72 -3 28
-12 76 -20 107 -17 64 -7 130 25 168 26 30 54 25 96 -19 l38 -39 -4 34 c-3 28
-10 36 -40 46 l-35 13 6 215 c4 156 9 226 20 255 8 22 15 47 15 55 -1 8 2 25
6 38 4 12 6 22 3 22 -2 0 -9 -10 -15 -22z"/>
<path d="M1030 2510 c-9 -6 -10 -10 -3 -10 6 0 15 5 18 10 8 12 4 12 -15 0z"/>
<path d="M1065 2511 c-3 -5 -2 -12 3 -15 5 -3 9 1 9 9 0 17 -3 19 -12 6z"/>
<path d="M1196 2501 c-4 -5 3 -7 14 -4 23 6 26 13 6 13 -8 0 -17 -4 -20 -9z"/>
<path d="M1014 2476 c-10 -8 -16 -17 -13 -20 3 -3 14 3 24 14 21 23 17 26 -11
6z"/>
<path d="M1040 2455 c-19 -36 -8 -40 12 -4 9 16 14 29 9 29 -4 0 -14 -11 -21
-25z"/>
<path d="M1096 2435 c-36 -20 -53 -42 -55 -70 -1 -5 8 4 18 21 18 29 41 52 41
40 0 -3 -9 -21 -21 -40 -12 -20 -17 -36 -12 -36 4 0 14 14 22 31 7 17 23 39
34 50 30 28 18 30 -27 4z"/>
<path d="M1189 2443 c-13 -16 -12 -17 4 -4 9 7 17 15 17 17 0 8 -8 3 -21 -13z"/>
<path d="M1245 2430 c3 -5 8 -10 11 -10 2 0 4 5 4 10 0 6 -5 10 -11 10 -5 0
-7 -4 -4 -10z"/>
<path d="M1007 2380 c3 -12 -1 -28 -10 -38 -8 -9 -19 -30 -22 -47 -5 -22 0
-17 19 20 28 53 31 70 17 79 -5 4 -7 -3 -4 -14z"/>
<path d="M981 2364 c0 -11 3 -14 6 -6 3 7 2 16 -1 19 -3 4 -6 -2 -5 -13z"/>
<path d="M1114 2342 c-11 -7 -39 -81 -32 -87 1 -1 13 19 25 46 12 27 21 49 20
49 -1 0 -7 -4 -13 -8z"/>
<path d="M1200 2329 c0 -11 4 -18 10 -14 5 3 7 12 3 20 -7 21 -13 19 -13 -6z"/>
<path d="M1012 2316 c-6 -13 -13 -41 -16 -63 -5 -30 -2 -26 14 21 21 61 22 85
2 42z"/>
<path d="M1041 2309 c-6 -17 -11 -44 -10 -58 1 -24 2 -23 13 9 6 19 15 41 20
48 5 8 4 18 -2 24 -6 6 -13 -1 -21 -23z"/>
<path d="M1245 2310 c3 -5 8 -10 11 -10 2 0 4 5 4 10 0 6 -5 10 -11 10 -5 0
-7 -4 -4 -10z"/>
<path d="M1145 2299 c-4 -6 -5 -12 -2 -15 2 -3 7 2 10 11 7 17 1 20 -8 4z"/>
<path d="M1149 2233 c-22 -54 -39 -116 -34 -122 3 -3 8 5 12 17 8 32 25 27 17
-5 -5 -22 -2 -19 15 12 12 22 20 47 17 55 -2 9 -4 6 -5 -7 -1 -25 -17 -38 -26
-23 -4 6 2 29 13 51 11 21 16 42 11 45 -5 3 -14 -7 -20 -23z"/>
<path d="M1194 2245 c-3 -8 -4 -20 -2 -27 3 -7 7 -1 10 15 6 29 1 36 -8 12z"/>
<path d="M1095 2219 c-4 -6 -5 -12 -2 -15 2 -3 7 2 10 11 7 17 1 20 -8 4z"/>
<path d="M1007 2201 c-4 -17 -3 -21 5 -13 5 5 8 16 6 23 -3 8 -7 3 -11 -10z"/>
<path d="M977 2176 c-5 -21 -6 -40 -3 -43 9 -10 18 24 14 54 -3 26 -4 25 -11
-11z"/>
<path d="M1069 2183 c-1 -5 -1 -11 0 -15 0 -4 -4 -20 -10 -35 -7 -20 -7 -25 1
-17 10 10 23 74 14 74 -2 0 -5 -3 -5 -7z"/>
<path d="M1410 2180 c0 -5 -16 -12 -35 -16 -19 -3 -39 -12 -46 -20 -13 -16 2
-19 17 -4 7 7 17 5 30 -4 19 -15 19 -15 -1 -10 -11 3 -31 1 -45 -5 -20 -8 -12
-9 35 -6 33 2 65 -1 72 -7 7 -6 13 -6 13 -2 0 5 -9 15 -20 22 -21 13 -28 42
-10 42 6 0 10 5 10 10 0 6 -4 10 -10 10 -5 0 -10 -4 -10 -10z"/>
<path d="M1210 2171 c0 -6 4 -13 10 -16 6 -3 7 1 4 9 -7 18 -14 21 -14 7z"/>
<path d="M1275 2139 c-36 -32 -46 -53 -21 -43 8 3 17 1 21 -5 3 -6 11 -11 17
-11 5 0 0 9 -13 19 l-24 19 27 7 c14 4 28 15 31 26 7 25 4 24 -38 -12z"/>
<path d="M1465 2150 c10 -11 21 -17 25 -15 4 3 14 -3 21 -13 12 -15 12 -16 -2
-5 -9 7 -19 10 -22 7 -3 -4 -13 1 -22 10 -9 9 -24 16 -33 16 -13 0 -11 -5 8
-20 14 -11 33 -18 42 -16 10 2 20 0 23 -5 3 -4 12 -6 20 -2 9 3 21 1 28 -5 15
-12 145 -9 155 4 4 5 5 8 3 6 -2 -1 -14 6 -25 15 -18 16 -19 16 -8 1 12 -14
10 -17 -15 -20 -16 -2 -40 5 -57 16 -23 16 -30 16 -37 5 -7 -11 -9 -11 -9 -1
0 7 -5 10 -11 6 -6 -3 -24 3 -40 15 -15 11 -36 21 -45 21 -16 0 -16 -2 1 -20z"/>
<path d="M1568 2158 c6 -6 18 -8 28 -6 14 3 12 5 -9 10 -19 3 -25 2 -19 -4z"/>
<path d="M1525 2150 c3 -5 10 -10 16 -10 5 0 9 5 9 10 0 6 -7 10 -16 10 -8 0
-12 -4 -9 -10z"/>
<path d="M1620 2125 c6 -8 18 -11 26 -8 18 7 13 12 -16 18 -18 3 -20 2 -10
-10z"/>
<path d="M992 2061 c-14 -45 -15 -61 -4 -61 5 0 9 6 9 13 0 6 3 29 7 50 9 48
2 48 -12 -2z"/>
<path d="M2059 2081 c11 -7 11 -9 0 -14 -8 -3 -9 -6 -3 -6 6 -1 16 5 22 12 8
10 6 13 -11 14 -15 2 -18 0 -8 -6z"/>
<path d="M2183 2083 c9 -2 15 -8 12 -12 -2 -5 7 -7 20 -5 14 1 25 -2 25 -7 0
-5 5 -9 12 -9 28 0 -24 36 -54 37 -18 1 -25 -1 -15 -4z"/>
<path d="M1093 2065 c0 -8 4 -12 9 -9 4 3 8 9 8 15 0 5 -4 9 -8 9 -5 0 -9 -7
-9 -15z"/>
<path d="M1220 2070 c-13 -8 -12 -10 3 -10 9 0 17 5 17 10 0 12 -1 12 -20 0z"/>
<path d="M1250 2065 c0 -17 25 -20 35 -5 4 6 -1 7 -11 3 -12 -4 -15 -3 -10 5
4 7 2 12 -3 12 -6 0 -11 -7 -11 -15z"/>
<path d="M1702 2055 c6 -14 17 -24 24 -21 7 3 15 0 18 -7 2 -7 5 -2 5 11 1 12
6 22 13 22 6 0 8 3 5 7 -4 3 -16 -2 -27 -12 -20 -18 -21 -18 -27 3 -3 12 -9
22 -14 22 -5 0 -3 -11 3 -25z"/>
<path d="M2085 2060 c-10 -11 -24 -20 -31 -20 -10 0 -31 -38 -25 -47 3 -7 16
-2 17 7 1 6 2 13 3 18 0 4 14 13 30 20 16 7 32 19 35 27 8 21 -8 18 -29 -5z"/>
<path d="M2322 2054 c-10 -11 -8 -16 10 -25 21 -11 22 -11 9 4 -15 19 -1 23
17 5 6 -6 14 -10 16 -7 2 2 -6 11 -18 20 -18 14 -23 14 -34 3z"/>
<path d="M1445 2051 c-35 -6 -155 -65 -155 -77 0 -11 57 11 77 29 45 40 204
58 225 25 4 -7 8 -9 8 -4 0 4 21 -15 47 -43 26 -28 52 -51 59 -51 16 0 24 24
13 41 -5 8 -9 10 -9 5 0 -5 -12 4 -27 21 -16 16 -39 36 -52 43 -27 14 -127 20
-186 11z m213 -57 c-4 -3 -12 5 -18 18 -12 22 -12 22 6 6 10 -10 15 -20 12
-24z"/>
<path d="M1791 2053 c0 -5 4 -17 9 -28 8 -17 8 -16 7 8 -1 15 -5 27 -9 27 -4
0 -8 -3 -7 -7z"/>
<path d="M1820 2049 c0 -5 5 -7 10 -4 6 3 10 8 10 11 0 2 -4 4 -10 4 -5 0 -10
-5 -10 -11z"/>
<path d="M2113 2046 c-22 -10 -30 -25 -15 -27 66 -9 135 -8 125 2 -6 6 -31 11
-56 12 -47 2 -51 12 -7 20 l25 4 -25 0 c-14 0 -35 -4 -47 -11z"/>
<path d="M1226 2035 c-3 -8 -1 -15 4 -15 6 0 10 7 10 15 0 8 -2 15 -4 15 -2 0
-6 -7 -10 -15z"/>
<path d="M1993 2039 c9 -6 15 -15 12 -20 -4 -5 -11 -7 -16 -4 -5 4 -9 1 -9 -4
0 -14 13 -14 28 1 13 13 -1 38 -22 38 -6 0 -3 -5 7 -11z"/>
<path d="M2222 2032 c14 -12 34 -22 45 -22 10 0 25 -5 33 -11 13 -9 13 -10 -1
-6 -9 3 -21 2 -28 -3 -8 -4 -2 -9 17 -13 19 -4 33 -14 37 -27 4 -12 9 -20 11
-17 3 2 0 16 -5 31 -9 21 -8 26 5 26 8 0 13 -3 11 -7 -3 -5 6 -8 19 -8 l24 0
-23 17 c-12 10 -30 18 -39 18 -10 0 -27 10 -39 23 -12 12 -18 16 -14 8 8 -14
-12 -12 -62 6 -11 4 -8 -2 9 -15z"/>
<path d="M1074 2016 c-3 -14 -3 -29 0 -35 4 -5 2 -12 -4 -16 -14 -8 -13 -42 2
-51 7 -4 8 -3 4 5 -10 15 3 53 15 46 5 -4 9 -1 9 4 0 6 -4 11 -10 11 -5 0 -10
7 -10 15 0 8 5 15 10 15 6 0 10 7 10 15 0 24 -19 17 -26 -9z"/>
<path d="M1011 2014 c0 -11 3 -14 6 -6 3 7 2 16 -1 19 -3 4 -6 -2 -5 -13z"/>
<path d="M1446 2023 c-10 -3 -39 -18 -64 -34 -25 -16 -53 -29 -62 -29 -9 0
-25 -9 -35 -20 -21 -23 -2 -29 24 -7 9 8 31 19 49 27 26 10 35 10 49 -1 15
-13 15 -12 5 7 -9 16 -7 22 9 32 26 16 27 16 22 -11 -6 -32 21 -57 63 -57 40
0 61 31 50 74 -6 23 -11 26 -49 25 -23 -1 -50 -3 -61 -6z m93 -25 c17 -44 -35
-70 -74 -38 -14 12 -9 40 9 52 23 16 57 8 65 -14z"/>
<path d="M1483 1994 c-3 -8 -1 -20 5 -26 12 -12 42 -4 42 12 0 6 -4 8 -10 5
-6 -3 -7 1 -4 9 4 11 0 16 -10 16 -9 0 -19 -7 -23 -16z"/>
<path d="M1950 2024 c1 -15 28 -46 37 -43 4 2 -2 15 -14 28 -13 13 -23 20 -23
15z"/>
<path d="M1037 2013 c-4 -3 -7 -16 -6 -27 0 -19 1 -19 10 3 10 24 8 36 -4 24z"/>
<path d="M1586 1988 c15 -18 31 -32 36 -30 4 1 8 -2 8 -8 0 -5 -7 -10 -16 -10
-8 0 -12 -5 -9 -10 4 -6 14 -10 23 -8 10 1 23 -1 30 -5 31 -20 8 19 -35 58
-57 52 -76 59 -37 13z"/>
<path d="M1210 2000 c0 -5 5 -10 10 -10 6 0 10 5 10 10 0 6 -4 10 -10 10 -5 0
-10 -4 -10 -10z"/>
<path d="M1755 1999 c-11 -17 1 -21 15 -4 8 9 8 15 2 15 -6 0 -14 -5 -17 -11z"/>
<path d="M2049 1963 c-29 -9 -52 -24 -60 -39 -19 -37 0 -43 27 -9 13 17 24 27
24 23 0 -4 16 0 35 8 19 7 49 14 67 15 28 0 30 2 13 9 -29 12 -54 11 -106 -7z"/>
<path d="M1006 1951 c-4 -7 -5 -15 -2 -18 9 -9 19 4 14 18 -4 11 -6 11 -12 0z"/>
<path d="M2180 1950 c0 -6 -5 -8 -11 -5 -16 11 -58 -4 -68 -24 -17 -31 -2 -60
37 -71 29 -8 39 -6 54 7 21 19 24 63 6 82 -11 11 -8 12 12 6 51 -15 78 -35 90
-67 7 -18 14 -28 16 -22 10 23 -17 65 -49 79 -55 23 -87 28 -87 15z m1 -20 c6
0 8 -4 5 -9 -4 -5 -2 -11 3 -13 5 -2 5 -13 0 -25 -14 -37 -79 -25 -79 13 0 20
31 46 47 40 8 -3 19 -6 24 -6z"/>
<path d="M2126 1911 c-8 -13 20 -45 32 -37 7 4 12 12 12 17 0 6 -4 8 -9 4 -5
-3 -12 -1 -15 4 -4 5 2 12 11 14 14 4 13 5 -4 6 -12 0 -24 -3 -27 -8z"/>
<path d="M2392 1950 c13 -8 15 -16 7 -43 -5 -17 -8 -57 -8 -87 l2 -55 8 60
c16 121 16 129 -6 132 -18 3 -18 3 -3 -7z"/>
<path d="M1374 1934 c3 -9 6 -17 6 -20 0 -2 7 -1 15 2 12 5 13 10 4 20 -16 19
-33 18 -25 -2z"/>
<path d="M1035 1930 c-3 -5 -1 -10 4 -10 6 0 11 5 11 10 0 6 -2 10 -4 10 -3 0
-8 -4 -11 -10z"/>
<path d="M2355 1931 c-3 -5 -2 -12 3 -15 5 -3 9 1 9 9 0 17 -3 19 -12 6z"/>
<path d="M1723 1915 c-3 -9 -3 -18 -1 -21 3 -3 8 4 11 16 6 23 -1 27 -10 5z"/>
<path d="M2043 1914 c-49 -24 -44 -37 20 -48 16 -3 25 -1 22 5 -4 5 -13 9 -22
9 -13 0 -12 5 7 25 27 29 19 31 -27 9z"/>
<path d="M2239 1901 c12 -16 21 -34 21 -39 0 -5 8 -13 18 -17 16 -6 16 -7 -1
-16 -9 -6 -22 -7 -27 -4 -6 3 -7 -1 -4 -9 8 -20 13 -20 35 0 16 14 18 14 29
-5 6 -12 17 -21 25 -21 22 0 19 5 -25 50 -22 23 -38 45 -35 50 5 9 -32 40 -48
40 -5 0 1 -13 12 -29z"/>
<path d="M1480 1906 c0 -18 33 -20 65 -5 17 7 15 8 -10 7 -17 -1 -36 1 -43 5
-7 5 -12 3 -12 -7z"/>
<path d="M1433 1893 c9 -2 23 -2 30 0 6 3 -1 5 -18 5 -16 0 -22 -2 -12 -5z"/>
<path d="M2327 1885 c3 -8 9 -12 14 -9 12 7 11 11 -5 17 -10 4 -13 1 -9 -8z"/>
<path d="M1550 1880 c-12 -7 -10 -9 8 -7 12 0 22 5 22 9 0 11 -12 10 -30 -2z"/>
<path d="M881 1795 c-1 -54 2 -85 9 -85 5 0 10 6 10 14 0 7 7 19 15 26 8 7 15
25 15 41 0 16 5 29 11 29 6 0 1 14 -11 30 -36 51 -46 39 -49 -55z m36 8 c-3
-10 -5 -4 -5 12 0 17 2 24 5 18 2 -7 2 -21 0 -30z"/>
<path d="M1450 1870 l-55 -7 50 -1 c28 -1 57 3 65 8 8 5 11 9 5 8 -5 -1 -35
-4 -65 -8z"/>
<path d="M1664 1868 c-3 -4 2 -8 10 -8 8 0 17 4 20 8 3 5 -2 9 -10 9 -8 0 -17
-4 -20 -9z"/>
<path d="M1043 1855 c-7 -8 -13 -18 -13 -23 0 -5 -7 -15 -15 -22 -8 -7 -15
-24 -14 -39 l0 -26 12 25 c6 14 19 33 28 43 18 20 32 57 21 57 -4 -1 -13 -7
-19 -15z"/>
<path d="M2220 1850 c-13 -8 -12 -10 3 -10 9 0 17 5 17 10 0 12 -1 12 -20 0z"/>
<path d="M2090 1820 c0 -5 5 -10 11 -10 5 0 7 5 4 10 -3 6 -8 10 -11 10 -2 0
-4 -4 -4 -10z"/>
<path d="M2145 1816 c17 -7 41 -16 55 -20 20 -5 19 -3 -5 8 -16 7 -41 16 -55
20 -20 5 -19 3 5 -8z"/>
<path d="M950 1793 c0 -11 7 -26 15 -33 20 -17 20 7 0 34 -15 19 -15 19 -15
-1z"/>
<path d="M2075 1789 c4 -6 10 -8 13 -5 3 3 12 0 21 -7 14 -11 14 -10 2 6 -14
18 -47 24 -36 6z"/>
<path d="M2242 1776 c7 -8 15 -12 17 -11 5 6 -10 25 -20 25 -5 0 -4 -6 3 -14z"/>
<path d="M1950 1771 c0 -6 4 -13 10 -16 6 -3 7 1 4 9 -7 18 -14 21 -14 7z"/>
<path d="M1730 1741 c-6 -12 -7 -21 -1 -21 10 0 24 30 17 37 -2 3 -9 -5 -16
-16z"/>
<path d="M982 1733 c-9 -3 -11 -15 -6 -39 4 -22 2 -34 -5 -34 -6 0 -11 -5 -11
-11 0 -6 7 -9 15 -5 10 4 15 -1 15 -14 0 -11 4 -20 10 -20 5 0 7 7 4 15 -3 8
-1 28 4 45 6 16 7 30 2 30 -5 0 -10 8 -12 18 -2 11 -9 17 -16 15z"/>
<path d="M1366 1703 c-6 -14 -5 -15 5 -6 7 7 10 15 7 18 -3 3 -9 -2 -12 -12z"/>
<path d="M1490 1710 c0 -5 5 -10 11 -10 5 0 7 5 4 10 -3 6 -8 10 -11 10 -2 0
-4 -4 -4 -10z"/>
<path d="M1672 1693 c-24 -35 -39 -79 -23 -69 6 4 11 13 11 20 0 7 10 25 21
40 12 15 19 29 16 32 -3 3 -14 -7 -25 -23z"/>
<path d="M1066 1685 c-9 -26 -7 -32 5 -12 6 10 9 21 6 23 -2 3 -7 -2 -11 -11z"/>
<path d="M1255 1690 c3 -5 8 -10 11 -10 2 0 4 5 4 10 0 6 -5 10 -11 10 -5 0
-7 -4 -4 -10z"/>
<path d="M930 1674 c0 -8 5 -12 10 -9 6 3 10 10 10 16 0 5 -4 9 -10 9 -5 0
-10 -7 -10 -16z"/>
<path d="M1971 1654 c0 -11 3 -14 6 -6 3 7 2 16 -1 19 -3 4 -6 -2 -5 -13z"/>
<path d="M1724 1605 c-14 -15 -23 -32 -20 -40 8 -21 -28 -19 -45 2 -8 9 -9 14
-2 10 7 -5 9 0 6 13 -4 15 -9 18 -18 10 -17 -15 -7 -48 20 -66 24 -16 55 -10
55 11 0 8 5 17 12 21 8 5 9 2 5 -9 -3 -10 -2 -17 3 -17 6 0 10 7 10 15 0 14
12 20 34 16 5 -1 6 5 2 14 -4 13 -2 14 14 5 16 -8 20 -8 20 4 0 17 -30 36 -55
36 -9 0 -27 -11 -41 -25z"/>
<path d="M1027 1589 c4 -21 2 -34 -8 -40 -10 -6 -10 -9 -1 -9 6 0 12 -7 12
-15 0 -8 -4 -15 -10 -15 -5 0 -10 -7 -10 -16 0 -11 -5 -14 -16 -10 -14 5 -15
4 -5 -8 8 -10 9 -16 1 -21 -5 -3 -10 -11 -10 -17 0 -5 9 0 20 13 18 23 19 23
21 4 1 -14 4 -11 9 10 11 45 11 143 0 150 -6 4 -7 -6 -3 -26z"/>
<path d="M1900 1611 c0 -9 -11 -11 -36 -8 -33 5 -34 4 -20 -12 26 -29 20 -42
-19 -37 -19 3 -35 2 -35 0 0 -3 14 -19 31 -37 17 -18 29 -27 25 -21 -3 7 9 19
29 28 40 19 46 31 13 23 -19 -5 -23 -2 -23 17 0 16 5 22 16 19 16 -4 35 24 24
35 -3 3 -5 0 -5 -7z"/>
<path d="M1241 1592 c-1 -15 -5 -21 -13 -16 -7 5 -8 3 -3 -5 10 -18 28 2 22
25 -4 15 -5 14 -6 -4z"/>
<path d="M990 1592 c0 -5 7 -15 15 -22 8 -7 15 -9 15 -6 0 4 -7 14 -15 22 -8
9 -15 11 -15 6z"/>
<path d="M1920 1585 c-9 -11 -10 -18 -1 -28 6 -8 8 -17 4 -20 -7 -8 37 -46 55
-47 18 0 51 40 52 63 0 9 -3 17 -6 17 -10 0 -29 -25 -29 -37 0 -7 -3 -13 -7
-13 -5 0 -15 0 -24 0 -13 0 -11 4 6 18 17 13 21 24 16 40 -9 26 -47 30 -66 7z"/>
<path d="M940 1585 c0 -6 58 -65 65 -65 3 0 -7 16 -22 35 -25 31 -43 44 -43
30z"/>
<path d="M1262 1560 c-17 -27 -15 -35 4 -16 8 9 14 21 12 26 -2 6 -9 1 -16
-10z"/>
<path d="M1157 1559 c7 -7 15 -10 18 -7 3 3 -2 9 -12 12 -14 6 -15 5 -6 -5z"/>
<path d="M1200 1560 c0 -5 5 -10 11 -10 5 0 7 5 4 10 -3 6 -8 10 -11 10 -2 0
-4 -4 -4 -10z"/>
<path d="M1390 1560 c0 -5 5 -10 11 -10 5 0 7 5 4 10 -3 6 -8 10 -11 10 -2 0
-4 -4 -4 -10z"/>
<path d="M1090 1541 c0 -11 5 -23 10 -26 6 -4 10 5 10 19 0 14 -4 26 -10 26
-5 0 -10 -9 -10 -19z"/>
<path d="M1300 1546 c0 -2 7 -7 16 -10 8 -3 12 -2 9 4 -6 10 -25 14 -25 6z"/>
<path d="M1345 1530 c3 -5 8 -10 11 -10 2 0 4 5 4 10 0 6 -5 10 -11 10 -5 0
-7 -4 -4 -10z"/>
<path d="M2350 1529 c0 -5 5 -7 10 -4 6 3 10 8 10 11 0 2 -4 4 -10 4 -5 0 -10
-5 -10 -11z"/>
<path d="M930 1505 c0 -9 5 -15 11 -13 6 2 11 8 11 13 0 5 -5 11 -11 13 -6 2
-11 -4 -11 -13z"/>
<path d="M1236 1508 c3 -5 10 -6 15 -3 13 9 11 12 -6 12 -8 0 -12 -4 -9 -9z"/>
<path d="M1895 1510 c-3 -5 1 -10 10 -10 9 0 13 5 10 10 -3 6 -8 10 -10 10 -2
0 -7 -4 -10 -10z"/>
<path d="M1091 1484 c0 -11 3 -14 6 -6 3 7 2 16 -1 19 -3 4 -6 -2 -5 -13z"/>
<path d="M1286 1487 c3 -10 9 -15 12 -12 3 3 0 11 -7 18 -10 9 -11 8 -5 -6z"/>
<path d="M1749 1486 c-16 -12 -22 -46 -7 -46 7 0 12 15 9 33 -2 12 17 8 22 -5
2 -7 7 -11 10 -8 3 3 0 12 -7 21 -9 13 -15 14 -27 5z"/>
<path d="M1917 1470 c7 -8 20 -15 29 -16 9 -1 13 1 9 4 -4 4 -10 7 -13 7 -4 0
-14 4 -22 9 -12 7 -13 6 -3 -4z"/>
<path d="M1793 1457 c-22 -22 -43 -37 -50 -37 -14 0 -8 -23 7 -28 8 -3 12 -1
7 3 -7 9 20 45 34 45 5 0 4 -12 -1 -26 -6 -15 -6 -23 -1 -19 5 3 12 1 15 -3 3
-5 -15 -9 -39 -10 -25 0 -48 4 -51 9 -3 6 -12 5 -22 -3 -13 -11 -14 -11 -4 8
6 12 8 25 4 29 -4 3 -1 5 7 3 8 -1 17 5 19 15 5 25 -25 22 -33 -4 -4 -12 -13
-18 -20 -15 -9 3 -12 0 -8 -9 3 -8 10 -12 17 -8 6 4 5 -1 -3 -10 -9 -11 -10
-17 -2 -17 6 0 11 -9 11 -20 0 -15 6 -19 30 -17 17 1 28 7 26 12 -2 6 5 12 15
12 11 1 17 -2 14 -8 -4 -5 -1 -9 4 -9 6 0 11 5 11 12 0 9 3 9 12 0 19 -19 27
-14 34 23 3 19 10 32 15 29 5 -3 9 -1 9 5 0 18 -18 21 -25 3 -7 -16 -8 -15
-15 3 -4 11 -3 26 2 33 13 15 -3 15 -19 -1z m-83 -92 c-7 -9 -15 -13 -17 -11
-7 7 7 26 19 26 6 0 6 -6 -2 -15z"/>
<path d="M1887 1451 c12 -10 20 -21 16 -24 -3 -3 4 -5 15 -4 26 2 20 12 -21
31 -32 16 -32 16 -10 -3z"/>
<path d="M1298 1453 c7 -3 16 -2 19 1 4 3 -2 6 -13 5 -11 0 -14 -3 -6 -6z"/>
<path d="M1470 1388 c-39 -39 -70 -75 -70 -79 0 -5 9 -13 20 -19 16 -9 18 -15
9 -38 -8 -22 -8 -25 2 -14 7 6 19 12 27 12 12 0 12 -3 1 -16 -12 -14 -9 -14
26 1 26 10 52 14 73 10 25 -5 32 -3 26 6 -5 9 -3 9 7 3 17 -11 70 -13 63 -3
-2 4 0 10 6 14 5 3 10 1 10 -6 0 -9 3 -9 14 0 19 16 136 7 248 -20 25 -6 49
-17 52 -25 3 -8 15 -14 27 -14 13 0 31 -8 41 -17 26 -24 59 -28 51 -6 -4 10
-2 14 5 9 6 -3 13 -2 17 4 4 6 12 7 18 4 7 -4 9 -4 5 1 -4 4 -4 13 1 19 21 26
-25 163 -47 141 -3 -3 2 -11 12 -18 9 -7 19 -28 22 -47 5 -33 5 -34 -10 -15
-13 18 -16 18 -30 5 -11 -10 -12 -20 -6 -30 8 -13 10 -13 10 2 0 9 5 20 10 23
6 4 8 -7 4 -29 -5 -32 -3 -35 13 -29 15 6 16 4 6 -8 -14 -17 -69 -17 -65 0 1
7 -2 10 -6 7 -5 -3 -31 6 -58 19 -27 14 -64 28 -81 31 -18 3 -31 10 -28 14 3
5 14 6 24 3 10 -3 22 0 25 6 4 7 1 8 -8 5 -9 -3 -16 -2 -16 2 0 5 -30 8 -66 7
-41 -1 -75 3 -88 12 -12 7 -29 10 -41 6 -16 -7 -14 -9 15 -16 30 -7 22 -9 -60
-17 -52 -5 -114 -10 -137 -10 -24 0 -45 -4 -48 -9 -9 -14 -44 -11 -41 4 4 27
17 38 32 26 11 -9 14 -8 14 5 0 10 3 15 8 13 4 -2 15 5 25 16 19 19 18 19 -3
12 -21 -7 -22 -7 -3 12 10 11 22 18 27 15 8 -4 26 16 26 31 0 17 -38 5 -43
-13 -3 -11 -13 -20 -24 -19 -10 0 -13 3 -5 6 6 2 12 9 12 15 0 7 -5 6 -14 -1
-8 -7 -12 -21 -9 -31 3 -11 2 -28 -1 -37 -6 -15 -9 -15 -16 -3 -5 9 -5 19 1
26 7 8 6 14 -3 17 -9 3 -3 15 18 35 18 17 35 29 38 26 3 -2 4 -1 1 3 -3 3 0
12 6 20 6 7 8 13 5 13 -4 0 -38 -32 -76 -72z m-4 -50 c0 -24 -14 -40 -28 -32
-6 4 18 54 26 54 1 0 2 -10 2 -22z"/>
<path d="M1110 1434 c0 -8 5 -12 10 -9 14 9 13 -8 -2 -23 -9 -9 -9 -12 -1 -12
14 0 27 36 18 50 -9 15 -25 12 -25 -6z"/>
<path d="M1975 1422 c0 -16 5 -29 13 -29 8 0 10 8 6 21 -10 34 -20 38 -19 8z"/>
<path d="M1260 1430 c-9 -6 -10 -10 -3 -10 6 0 15 5 18 10 8 12 4 12 -15 0z"/>
<path d="M1951 1424 c0 -11 3 -14 6 -6 3 7 2 16 -1 19 -3 4 -6 -2 -5 -13z"/>
<path d="M2272 1420 c0 -14 2 -19 5 -12 2 6 2 18 0 25 -3 6 -5 1 -5 -13z"/>
<path d="M1597 1415 c-4 -8 -2 -17 3 -20 6 -4 10 -4 10 -1 0 2 3 11 6 20 3 9
2 16 -4 16 -5 0 -12 -7 -15 -15z"/>
<path d="M1627 1416 c-4 -10 -3 -15 3 -11 6 3 10 2 10 -4 0 -5 -4 -13 -10 -16
-5 -3 -10 -18 -9 -33 0 -24 2 -23 15 12 8 23 10 44 5 53 -7 13 -9 13 -14 -1z"/>
<path d="M2010 1424 c0 -3 7 -12 15 -20 16 -17 18 -14 9 10 -6 15 -24 23 -24
10z"/>
<path d="M1386 1411 c-4 -5 3 -7 14 -4 23 6 26 13 6 13 -8 0 -17 -4 -20 -9z"/>
<path d="M1868 1392 c-10 -2 -18 -8 -18 -13 0 -6 5 -7 10 -4 6 3 10 -1 10 -9
0 -17 47 -52 57 -42 3 3 2 6 -4 6 -9 0 -21 23 -27 52 -2 11 -10 14 -28 10z"/>
<path d="M1918 1388 c7 -7 12 -19 12 -27 0 -9 9 -27 20 -41 l20 -25 -1 25 c0
24 -39 80 -56 80 -4 0 -2 -5 5 -12z"/>
<path d="M1131 1381 c-7 -5 -12 -14 -10 -20 2 -6 10 -2 17 9 14 22 13 23 -7
11z"/>
<path d="M1294 1381 c4 -5 3 -11 -1 -14 -5 -2 -2 -2 4 -1 7 2 17 -5 22 -14 6
-9 10 -12 10 -7 0 13 -24 45 -33 45 -4 0 -5 -4 -2 -9z"/>
<path d="M1950 1381 c0 -5 5 -13 10 -16 6 -3 10 -2 10 4 0 5 -4 13 -10 16 -5
3 -10 2 -10 -4z"/>
<path d="M2260 1381 c0 -5 5 -13 10 -16 6 -3 10 -2 10 4 0 5 -4 13 -10 16 -5
3 -10 2 -10 -4z"/>
<path d="M2017 1373 c-4 -3 -7 -11 -7 -17 0 -6 5 -5 12 2 6 6 9 14 7 17 -3 3
-9 2 -12 -2z"/>
<path d="M1576 1354 c-18 -18 -21 -34 -6 -34 6 0 9 3 9 8 -4 21 3 24 17 6 15
-18 15 -18 5 2 -6 12 -7 24 -4 28 3 3 4 6 0 6 -3 0 -13 -7 -21 -16z"/>
<path d="M1647 1357 c-5 -14 31 -43 41 -33 3 3 0 6 -6 6 -7 0 -12 6 -12 14 0
20 -17 29 -23 13z"/>
<path d="M1830 1361 c0 -6 4 -13 10 -16 6 -3 7 1 4 9 -7 18 -14 21 -14 7z"/>
<path d="M1983 1343 c7 -43 37 -79 63 -75 16 2 21 10 20 32 -1 21 -4 26 -13
18 -7 -6 -13 -17 -13 -24 0 -8 -5 -14 -11 -14 -6 0 -8 8 -5 18 4 12 -3 29 -19
48 l-26 29 4 -32z"/>
<path d="M2127 1359 c7 -7 15 -10 18 -7 3 3 -2 9 -12 12 -14 6 -15 5 -6 -5z"/>
<path d="M1184 1345 c-4 -8 -13 -15 -22 -15 -8 0 -12 -3 -9 -7 4 -3 1 -13 -6
-22 -11 -14 -10 -14 12 0 21 13 48 59 35 59 -2 0 -7 -7 -10 -15z"/>
<path d="M1130 1340 c-8 -5 -10 -10 -5 -10 6 0 17 5 25 10 8 5 11 10 5 10 -5
0 -17 -5 -25 -10z"/>
<path d="M2247 1323 c-4 -3 -7 -11 -7 -17 0 -6 5 -5 12 2 6 6 9 14 7 17 -3 3
-9 2 -12 -2z"/>
<path d="M1292 1290 c0 -14 2 -19 5 -12 2 6 2 18 0 25 -3 6 -5 1 -5 -13z"/>
<path d="M1095 1290 c-3 -6 1 -7 9 -4 18 7 21 14 7 14 -6 0 -13 -4 -16 -10z"/>
<path d="M1150 1270 c0 -5 5 -10 10 -10 6 0 10 5 10 10 0 6 -4 10 -10 10 -5 0
-10 -4 -10 -10z"/>
<path d="M1166 1239 c-16 -16 -17 -19 -4 -19 9 0 19 7 22 16 9 24 4 24 -18 3z"/>
<path d="M1260 1246 c0 -7 7 -13 15 -13 8 0 15 4 15 8 0 4 -7 9 -15 13 -9 3
-15 0 -15 -8z"/>
<path d="M2044 1248 c-4 -5 -3 -12 0 -15 3 -4 6 -1 6 5 0 6 7 9 15 6 8 -4 15
-2 15 3 0 12 -29 13 -36 1z"/>
<path d="M2275 1251 c-3 -5 -2 -12 3 -15 5 -3 9 1 9 9 0 17 -3 19 -12 6z"/>
<path d="M1337 1221 c-4 -17 -3 -21 5 -13 5 5 8 16 6 23 -3 8 -7 3 -11 -10z"/>
<path d="M1220 1221 c0 -6 4 -13 10 -16 6 -3 7 1 4 9 -7 18 -14 21 -14 7z"/>
<path d="M1090 1205 c-7 -9 -8 -15 -2 -15 5 0 12 7 16 15 3 8 4 15 2 15 -2 0
-9 -7 -16 -15z"/>
<path d="M1750 1213 c0 -5 -31 -7 -70 -6 -67 3 -69 2 -52 -16 13 -14 19 -15
27 -6 17 21 39 -10 25 -35 -15 -29 -23 -25 -15 7 4 16 3 24 -1 20 -4 -4 -9
-28 -9 -54 l-2 -46 19 37 c10 20 23 34 28 31 5 -3 15 4 24 16 24 35 40 12 16
-25 -11 -19 -20 -44 -20 -56 0 -27 9 -22 14 7 5 26 46 102 46 85 0 -8 11 -11
34 -9 34 4 35 3 30 -27 -3 -17 -8 -37 -10 -44 -2 -7 1 -10 6 -7 6 3 10 13 10
21 0 9 5 12 11 8 8 -4 8 -1 0 14 -9 18 -8 23 9 32 17 9 20 8 21 -12 1 -18 2
-19 6 -5 3 13 10 16 21 11 24 -10 82 -12 82 -3 0 12 -12 17 -56 23 -22 4 -51
9 -64 12 -14 3 -39 7 -55 8 -17 2 -40 8 -53 15 -12 6 -22 8 -22 4z m-39 -56
c-8 -8 -11 -7 -11 4 0 20 13 34 18 19 3 -7 -1 -17 -7 -23z"/>
<path d="M1290 1200 c0 -5 5 -10 11 -10 5 0 7 5 4 10 -3 6 -8 10 -11 10 -2 0
-4 -4 -4 -10z"/>
<path d="M1203 1184 c4 -5 -1 -13 -12 -19 -20 -10 -20 -11 2 -24 20 -13 21
-13 8 2 -11 15 -11 17 2 17 23 0 30 17 10 24 -10 4 -14 4 -10 0z"/>
<path d="M1140 1170 c-8 -5 -12 -11 -9 -14 2 -3 11 -1 19 4 8 5 12 11 9 14 -2
3 -11 1 -19 -4z"/>
<path d="M1245 1170 c-2 -3 5 -7 16 -7 10 -1 19 2 19 6 0 9 -29 10 -35 1z"/>
<path d="M2270 1170 c0 -5 5 -10 11 -10 5 0 7 5 4 10 -3 6 -8 10 -11 10 -2 0
-4 -4 -4 -10z"/>
<path d="M1335 1160 c-12 -20 -14 -50 -3 -56 6 -4 8 -3 4 4 -3 5 0 13 6 15 10
4 10 6 1 6 -7 1 -10 7 -7 15 3 9 12 12 21 9 11 -4 14 -2 9 5 -9 15 -23 15 -31
2z"/>
<path d="M1620 1139 c0 -5 5 -7 10 -4 6 3 10 8 10 11 0 2 -4 4 -10 4 -5 0 -10
-5 -10 -11z"/>
<path d="M1781 1128 c-9 -23 0 -51 19 -63 20 -12 10 -26 -10 -15 -11 6 -20 18
-20 27 0 31 -9 7 -15 -37 -3 -32 -2 -40 5 -30 8 12 10 13 10 1 0 -8 3 -12 6
-9 3 4 1 16 -6 27 -6 12 -7 21 -2 21 11 0 34 -25 28 -31 -2 -2 7 -4 20 -4 18
0 21 3 12 10 -7 6 -12 23 -10 39 3 22 0 27 -11 23 -19 -7 -29 14 -16 34 7 11
9 11 9 -3 0 -11 7 -18 18 -17 10 0 12 3 5 6 -7 2 -13 11 -13 18 0 25 -20 27
-29 3z"/>
<path d="M1910 1141 c0 -6 4 -13 10 -16 6 -3 7 1 4 9 -7 18 -14 21 -14 7z"/>
<path d="M2137 1143 c-10 -9 -9 -23 1 -23 5 0 9 7 9 15 0 17 -1 18 -10 8z"/>
<path d="M2266 1137 c3 -10 9 -15 12 -12 3 3 0 11 -7 18 -10 9 -11 8 -5 -6z"/>
<path d="M1220 1125 c-11 -13 -10 -14 6 -8 17 6 18 5 4 -13 -14 -17 -14 -18 2
-6 9 8 14 20 11 28 -6 18 -8 17 -23 -1z"/>
<path d="M1415 1131 c3 -6 11 -8 17 -5 6 4 15 0 20 -7 8 -12 9 -11 5 1 -2 8
-14 17 -26 18 -15 2 -21 0 -16 -7z"/>
<path d="M1271 1110 c-17 -15 -19 -20 -7 -20 8 0 20 9 26 20 13 25 11 25 -19
0z"/>
<path d="M1696 1108 c-10 -14 -12 -27 -6 -38 5 -10 7 -20 5 -24 -3 -3 1 -2 7
4 9 7 9 13 1 21 -9 9 -8 18 4 35 19 30 10 32 -11 2z"/>
<path d="M2223 1115 c0 -7 8 -10 19 -7 20 5 17 15 -6 18 -7 1 -13 -4 -13 -11z"/>
<path d="M1180 1095 c0 -8 2 -15 4 -15 2 0 6 7 10 15 3 8 1 15 -4 15 -6 0 -10
-7 -10 -15z"/>
<path d="M1380 1106 c0 -2 8 -10 18 -17 15 -13 16 -12 3 4 -13 16 -21 21 -21
13z"/>
<path d="M2202 1095 c4 -4 2 -15 -5 -23 -6 -9 -7 -13 -2 -10 10 6 36 -16 34
-28 0 -3 1 -8 4 -10 2 -3 7 6 9 20 3 14 2 25 -1 24 -19 -2 -31 3 -26 11 3 5 0
13 -7 17 -7 4 -10 4 -6 -1z"/>
<path d="M1911 1074 c0 -11 3 -14 6 -6 3 7 2 16 -1 19 -3 4 -6 -2 -5 -13z"/>
<path d="M2130 1080 c0 -5 5 -10 11 -10 5 0 7 5 4 10 -3 6 -8 10 -11 10 -2 0
-4 -4 -4 -10z"/>
<path d="M1093 1074 c-7 -3 7 -24 36 -53 51 -51 91 -70 91 -44 0 10 -6 13 -16
9 -12 -5 -15 -2 -10 9 3 9 2 14 -2 11 -5 -3 -20 6 -35 20 -14 13 -31 24 -38
24 -6 0 -9 7 -5 15 5 15 1 17 -21 9z"/>
<path d="M2337 1060 c3 -11 7 -20 9 -20 2 0 4 9 4 20 0 11 -4 20 -9 20 -5 0
-7 -9 -4 -20z"/>
<path d="M1210 1056 c-6 -8 -19 -12 -28 -9 -18 7 -17 5 12 -17 13 -10 17 -10
12 -2 -6 11 4 17 26 13 4 0 5 6 2 14 -7 18 -9 18 -24 1z"/>
<path d="M1300 1061 c0 -5 9 -11 20 -14 25 -6 27 -37 3 -37 -16 -1 -16 -2 2
-12 25 -15 47 -19 39 -7 -3 5 -10 7 -15 4 -5 -4 -9 -2 -9 4 0 5 5 11 12 13 9
3 6 12 -8 29 -20 25 -44 36 -44 20z"/>
<path d="M1856 1061 c-3 -5 1 -11 9 -15 8 -3 15 -1 15 4 0 13 -18 22 -24 11z"/>
<path d="M1265 1030 c-3 -5 -2 -10 4 -10 5 0 13 5 16 10 3 6 2 10 -4 10 -5 0
-13 -4 -16 -10z"/>
<path d="M1847 1025 c3 -8 9 -12 14 -9 12 7 11 11 -5 17 -10 4 -13 1 -9 -8z"/>
<path d="M2180 1019 c0 -5 5 -9 10 -9 6 0 9 -3 9 -7 -4 -23 2 -43 11 -38 5 3
7 12 4 19 -3 8 2 16 11 18 12 2 7 7 -14 15 -17 6 -31 7 -31 2z"/>
<path d="M2334 994 c-4 -19 -13 -38 -20 -41 -8 -3 -14 -11 -14 -19 0 -8 -4
-14 -10 -14 -5 0 -10 -9 -10 -20 0 -10 -8 -24 -17 -29 -10 -6 -13 -11 -7 -11
6 0 19 9 29 20 10 11 14 20 9 20 -5 0 -2 6 7 13 21 16 40 53 46 88 6 42 -5 36
-13 -7z"/>
<path d="M1670 1010 c0 -5 5 -10 11 -10 5 0 7 5 4 10 -3 6 -8 10 -11 10 -2 0
-4 -4 -4 -10z"/>
<path d="M2073 1005 c0 -7 6 -11 14 -8 7 3 13 6 13 8 0 2 -6 5 -13 8 -8 3 -14
-1 -14 -8z"/>
<path d="M1795 990 c-4 -6 -2 -17 4 -23 15 -15 25 -2 13 19 -7 12 -11 13 -17
4z"/>
<path d="M2150 984 c0 -8 5 -12 11 -8 8 4 9 -4 5 -27 -5 -30 -5 -31 4 -10 11
25 5 61 -11 61 -5 0 -9 -7 -9 -16z"/>
<path d="M2250 992 c0 -6 -7 -18 -16 -26 -13 -14 -13 -16 0 -16 15 0 32 37 22
47 -3 4 -6 1 -6 -5z"/>
<path d="M1671 973 c0 -10 4 -27 8 -38 7 -15 9 -11 9 18 0 20 -4 37 -9 37 -5
0 -9 -8 -8 -17z"/>
<path d="M1100 970 c0 -5 5 -10 10 -10 6 0 10 5 10 10 0 6 -4 10 -10 10 -5 0
-10 -4 -10 -10z"/>
<path d="M1237 963 c12 -34 25 -43 83 -55 50 -10 57 -14 53 -32 -3 -20 -3 -21
6 -1 10 22 -14 49 -36 41 -18 -7 -16 4 4 26 9 10 11 18 6 18 -6 0 -13 -6 -16
-14 -4 -9 -18 -13 -39 -12 -47 4 -48 5 -48 20 0 8 -4 18 -10 21 -6 4 -7 -1 -3
-12z"/>
<path d="M1721 948 c-10 -30 -9 -31 4 -14 8 11 15 26 15 33 0 22 -8 14 -19
-19z"/>
<path d="M1369 943 c-13 -16 -12 -17 4 -4 16 13 21 21 13 21 -2 0 -10 -8 -17
-17z"/>
<path d="M1460 951 c0 -5 8 -15 18 -22 15 -12 16 -12 5 2 -7 9 -10 19 -6 22 3
4 1 7 -5 7 -7 0 -12 -4 -12 -9z"/>
<path d="M1396 935 c-9 -26 -7 -32 5 -12 6 10 9 21 6 23 -2 3 -7 -2 -11 -11z"/>
<path d="M1570 943 c0 -1 8 -12 17 -22 17 -21 23 -39 26 -82 2 -31 32 -63 52
-55 11 4 13 10 6 23 -21 39 -31 87 -20 93 7 5 5 9 -5 13 -13 5 -16 -1 -16 -26
0 -23 -3 -28 -9 -18 -5 8 -7 21 -4 29 4 8 -1 19 -11 24 -9 5 -14 13 -12 17 3
4 -1 8 -9 8 -8 0 -15 -2 -15 -4z m83 -120 c7 -36 0 -43 -12 -12 -5 13 -10 18
-10 10 -1 -8 -3 -12 -6 -9 -7 7 5 38 15 38 4 0 10 -12 13 -27z"/>
<path d="M1780 939 c0 -5 -4 -7 -10 -4 -7 4 -7 -3 0 -20 6 -15 6 -24 1 -20
-11 6 -26 -33 -17 -42 3 -4 6 1 6 10 0 10 5 14 15 11 12 -5 15 3 15 35 0 23
-2 41 -5 41 -3 0 -5 -5 -5 -11z"/>
<path d="M1741 924 c0 -11 3 -14 6 -6 3 7 2 16 -1 19 -3 4 -6 -2 -5 -13z"/>
<path d="M2040 926 c-20 -20 -9 -24 20 -10 17 9 30 16 30 18 0 7 -42 0 -50 -8z"/>
<path d="M2188 922 c-2 -9 -1 -33 2 -52 6 -34 6 -34 11 13 4 47 -5 75 -13 39z"/>
<path d="M2220 916 c0 -22 3 -27 11 -19 8 8 8 16 0 30 -9 16 -10 14 -11 -11z"/>
<path d="M1428 908 c2 -10 9 -15 14 -12 6 4 8 -2 3 -15 -4 -12 -2 -21 4 -21 6
0 10 15 9 34 -1 26 -5 34 -18 33 -11 -1 -15 -7 -12 -19z"/>
<path d="M1807 906 c-4 -15 -6 -31 -2 -34 10 -10 16 6 13 35 l-3 28 -8 -29z"/>
<path d="M2130 905 c-7 -8 -9 -15 -4 -15 5 0 -2 -7 -14 -16 -22 -15 -24 -15
-38 2 -9 11 -13 13 -9 7 3 -7 2 -13 -4 -13 -5 0 -11 6 -14 13 -2 6 -7 -3 -12
-22 -8 -39 -36 -76 -45 -60 -4 5 -7 -4 -7 -20 0 -17 4 -28 9 -25 4 3 8 12 8
20 0 9 5 12 12 8 6 -4 8 -3 4 4 -3 6 -1 14 4 17 6 4 15 18 20 31 5 13 15 24
21 24 8 0 8 -4 -1 -15 -10 -12 -8 -13 10 -10 13 2 30 11 40 20 9 8 21 15 27
15 6 0 10 11 9 25 -1 29 0 29 -16 10z"/>
<path d="M2250 904 c0 -8 5 -12 10 -9 6 3 10 10 10 16 0 5 -4 9 -10 9 -5 0
-10 -7 -10 -16z"/>
<path d="M1402 881 c-12 -33 -3 -41 18 -17 8 10 8 21 2 32 -8 14 -11 12 -20
-15z"/>
<path d="M1477 893 c5 -12 18 -17 37 -14 4 1 14 -3 21 -9 8 -7 16 -7 19 -2 3
6 -14 16 -38 24 -36 12 -43 12 -39 1z"/>
<path d="M1702 885 c6 -14 13 -23 16 -21 7 7 -9 46 -18 46 -5 0 -4 -11 2 -25z"/>
<path d="M1903 893 c-9 -3 -10 -10 -3 -22 5 -10 7 -21 5 -25 -3 -3 -2 -4 2 -1
3 3 7 16 8 30 0 14 1 25 0 24 0 0 -6 -3 -12 -6z"/>
<path d="M1972 880 c7 -11 16 -20 20 -20 4 0 5 -7 1 -16 -5 -13 -8 -12 -27 5
-21 19 -21 19 -39 -5 -11 -15 -14 -24 -6 -24 6 0 17 7 24 17 9 13 14 13 20 3
6 -9 4 -11 -5 -5 -8 5 -11 3 -8 -6 10 -30 68 -1 68 34 0 11 -3 17 -7 14 -3 -4
-17 0 -30 8 -23 15 -23 15 -11 -5z"/>
<path d="M1261 884 c-1 -6 5 -17 12 -23 10 -8 14 -7 14 4 0 8 -4 12 -8 9 -4
-2 -10 2 -12 8 -4 8 -6 9 -6 2z"/>
<path d="M1346 875 c-3 -8 -1 -15 4 -15 6 0 10 7 10 15 0 8 -2 15 -4 15 -2 0
-6 -7 -10 -15z"/>
<path d="M1840 875 c-6 -8 -10 -22 -8 -32 2 -10 -2 -23 -10 -28 -22 -17 -4
-45 29 -45 32 0 37 11 14 34 -18 18 -20 63 -3 68 8 3 9 6 1 11 -6 4 -16 0 -23
-8z m20 -80 c9 -10 9 -15 1 -15 -6 0 -11 4 -11 10 0 5 -7 7 -15 4 -8 -4 -15
-1 -15 5 0 16 25 13 40 -4z"/>
<path d="M1006 838 c-12 -97 -14 -124 -6 -143 4 -12 10 18 14 79 7 100 2 143
-8 64z"/>
<path d="M1300 870 c0 -5 9 -14 20 -20 19 -10 20 -10 8 9 -13 22 -28 28 -28
11z"/>
<path d="M1487 863 c-4 -5 -2 -25 3 -43 5 -18 7 -37 4 -41 -3 -5 2 -19 10 -31
l16 -22 0 22 c0 12 -4 22 -8 22 -5 0 -8 15 -7 34 1 41 -9 74 -18 59z"/>
<path d="M1562 858 c-6 -7 -13 -27 -17 -43 -4 -17 -9 -39 -12 -50 -3 -16 -2
-17 6 -5 6 8 11 25 11 38 0 12 4 22 9 22 10 0 26 39 18 46 -2 2 -9 -1 -15 -8z"/>
<path d="M1690 861 c0 -6 4 -13 10 -16 6 -3 7 1 4 9 -7 18 -14 21 -14 7z"/>
<path d="M1512 848 c5 -15 28 -23 28 -10 0 5 -7 13 -16 16 -10 4 -14 1 -12 -6z"/>
<path d="M1776 853 c-3 -4 -6 -18 -6 -31 0 -28 9 -25 15 5 2 10 4 20 4 22 1 2
7 -2 14 -8 10 -8 14 -7 14 2 0 13 -30 20 -41 10z"/>
<path d="M2112 835 c-11 -13 -21 -23 -23 -22 -2 1 2 -3 9 -9 11 -10 11 -13 0
-17 -10 -4 -10 -6 0 -6 10 -1 10 -6 2 -23 -11 -22 -11 -23 5 -3 9 11 14 29 11
40 -3 12 3 28 16 42 12 13 17 23 10 23 -6 0 -19 -11 -30 -25z"/>
<path d="M1453 835 c0 -8 4 -12 9 -9 4 3 8 9 8 15 0 5 -4 9 -8 9 -5 0 -9 -7
-9 -15z"/>
<path d="M1670 840 c0 -5 5 -10 11 -10 5 0 7 5 4 10 -3 6 -8 10 -11 10 -2 0
-4 -4 -4 -10z"/>
<path d="M1712 830 c-7 -12 -17 -18 -22 -15 -6 3 -7 -1 -3 -11 5 -15 7 -15 15
0 11 20 28 21 28 2 0 -8 4 -17 9 -20 5 -3 8 9 7 26 -2 38 -16 46 -34 18z"/>
<path d="M1408 823 c5 -10 12 -25 15 -33 3 -8 6 0 6 18 1 22 -4 32 -14 32 -12
0 -13 -5 -7 -17z"/>
<path d="M2151 823 c-7 -8 -11 -16 -8 -19 2 -2 10 2 17 11 17 20 9 27 -9 8z"/>
<path d="M2235 830 c-3 -5 -1 -10 4 -10 6 0 11 5 11 10 0 6 -2 10 -4 10 -3 0
-8 -4 -11 -10z"/>
<path d="M1580 820 c0 -21 12 -35 40 -50 l25 -13 -25 29 c-14 16 -28 33 -32
39 -5 5 -8 3 -8 -5z"/>
<path d="M1886 821 c-4 -6 0 -19 10 -28 15 -16 15 -18 -7 -35 -44 -33 -49 -39
-49 -53 0 -8 5 -15 11 -15 6 0 9 7 5 15 -3 8 0 16 7 17 13 1 29 5 37 8 15 5
50 9 50 5 0 -2 -13 -33 -29 -67 -16 -35 -35 -94 -42 -133 -6 -38 -22 -92 -35
-120 -13 -27 -26 -70 -29 -95 -3 -25 -8 -65 -11 -90 -10 -75 5 -39 22 51 9 46
20 89 25 95 5 7 9 16 8 20 -1 5 3 22 9 37 7 16 12 33 12 38 0 6 4 8 8 5 4 -2
9 3 10 12 9 74 15 108 22 117 4 6 11 25 15 43 3 17 10 32 14 32 4 0 8 6 8 13
0 7 3 25 7 41 6 25 5 28 -11 22 -29 -12 -35 -12 -40 2 -3 7 3 12 14 13 17 0
17 1 0 8 -10 4 -17 9 -16 11 2 3 -2 13 -8 24 -7 12 -13 15 -17 7z"/>
<path d="M2176 814 c-8 -21 -8 -24 4 -24 6 0 10 6 10 14 0 8 6 17 13 19 7 4 6
6 -4 6 -9 1 -20 -6 -23 -15z"/>
<path d="M1380 811 c0 -5 5 -13 11 -17 8 -5 8 -9 -1 -14 -9 -5 -9 -9 -1 -14
18 -12 24 22 7 39 -9 9 -16 12 -16 6z"/>
<path d="M1516 805 c4 -8 8 -15 10 -15 2 0 4 7 4 15 0 8 -4 15 -10 15 -5 0 -7
-7 -4 -15z"/>
<path d="M1935 810 c-8 -13 -1 -24 14 -19 6 3 7 10 2 18 -6 10 -10 10 -16 1z"/>
<path d="M2046 804 c-11 -7 -18 -16 -15 -18 2 -2 13 2 23 10 11 7 18 16 15 18
-2 2 -13 -2 -23 -10z"/>
<path d="M1450 790 c0 -13 5 -18 14 -14 8 3 12 12 9 20 -8 21 -23 17 -23 -6z"/>
<path d="M1710 792 c0 -6 -8 -13 -17 -15 -16 -4 -16 -5 -1 -6 18 -1 34 16 24
26 -3 4 -6 1 -6 -5z"/>
<path d="M1560 774 c0 -11 23 -34 48 -48 17 -10 15 -2 -8 24 -11 13 -20 19
-20 14 0 -5 -5 -2 -10 6 -5 8 -10 10 -10 4z"/>
<path d="M1783 765 c0 -8 4 -15 9 -15 4 0 8 7 8 15 0 8 -4 15 -8 15 -5 0 -9
-7 -9 -15z"/>
<path d="M2142 768 c-16 -21 -26 -62 -13 -54 6 4 11 15 11 25 0 9 5 22 12 29
7 7 9 12 6 12 -3 0 -10 -6 -16 -12z"/>
<path d="M1635 750 c-17 -8 -16 -8 8 -7 15 1 27 5 27 9 0 10 -9 9 -35 -2z"/>
<path d="M1690 745 c7 -8 16 -13 20 -10 5 3 10 -1 13 -7 3 -10 7 -10 19 0 11
9 18 10 23 2 3 -5 3 -10 -1 -10 -4 0 1 -6 12 -14 18 -14 18 -15 -3 -13 -13 1
-23 5 -23 10 0 5 -7 4 -15 -3 -8 -7 -14 -22 -14 -34 2 -19 2 -19 6 2 4 22 5
23 18 5 12 -15 14 -16 15 -2 0 12 8 16 35 13 27 -2 35 1 35 14 0 15 -2 15 -10
2 -8 -12 -10 -12 -10 5 0 17 -2 17 -10 5 -8 -13 -11 -11 -16 7 -7 26 -34 39
-46 21 -6 -10 -8 -10 -8 1 0 7 -6 11 -15 7 -8 -3 -15 -1 -15 4 0 6 -5 10 -11
10 -8 0 -8 -5 1 -15z"/>
<path d="M1810 750 c0 -5 7 -7 15 -4 8 4 15 8 15 10 0 2 -7 4 -15 4 -8 0 -15
-4 -15 -10z"/>
<path d="M1420 739 c0 -5 5 -7 10 -4 6 3 10 8 10 11 0 2 -4 4 -10 4 -5 0 -10
-5 -10 -11z"/>
<path d="M1455 740 c-3 -6 1 -7 9 -4 18 7 21 14 7 14 -6 0 -13 -4 -16 -10z"/>
<path d="M1541 728 c-1 -12 -9 -18 -27 -18 -14 0 -23 -4 -20 -9 3 -4 18 -6 32
-3 22 4 26 2 21 -12 -5 -12 -1 -16 16 -16 15 0 18 3 9 9 -7 4 -17 21 -22 37
-4 16 -9 21 -9 12z"/>
<path d="M1560 728 c0 -8 9 -23 20 -33 11 -10 20 -15 20 -11 0 4 -9 19 -20 33
-13 17 -20 20 -20 11z"/>
<path d="M1652 713 c8 -10 13 -11 18 -2 5 8 11 6 19 -7 9 -17 10 -17 11 -1 0
9 -3 17 -7 18 -5 0 -18 2 -30 3 -18 2 -20 0 -11 -11z"/>
<path d="M1625 700 c3 -5 8 -10 11 -10 2 0 4 5 4 10 0 6 -5 10 -11 10 -5 0 -7
-4 -4 -10z"/>
<path d="M1855 666 c-12 -27 -23 -40 -27 -33 -4 7 -7 4 -6 -8 0 -11 -3 -29 -7
-39 -6 -14 -5 -17 3 -12 7 4 12 14 12 22 0 8 4 14 9 14 5 0 12 11 15 24 3 14
13 32 22 41 10 10 13 20 8 25 -6 6 -17 -8 -29 -34z"/>
<path d="M890 685 c0 -5 5 -17 10 -25 5 -8 10 -10 10 -5 0 6 -5 17 -10 25 -5
8 -10 11 -10 5z"/>
<path d="M1468 668 c5 -5 16 -8 23 -6 8 3 3 7 -10 11 -17 4 -21 3 -13 -5z"/>
<path d="M1648 673 c7 -3 16 -2 19 1 4 3 -2 6 -13 5 -11 0 -14 -3 -6 -6z"/>
<path d="M1590 657 c0 -9 4 -18 9 -21 5 -4 8 1 7 9 -3 21 -16 31 -16 12z"/>
<path d="M1624 662 c9 -14 66 -33 66 -21 0 5 -4 9 -10 9 -18 0 -25 2 -44 12
-12 7 -16 7 -12 0z"/>
<path d="M680 640 c0 -5 5 -10 11 -10 5 0 7 5 4 10 -3 6 -8 10 -11 10 -2 0 -4
-4 -4 -10z"/>
<path d="M1530 642 c0 -12 19 -26 26 -19 2 2 -2 10 -11 17 -9 8 -15 8 -15 2z"/>
<path d="M801 604 c0 -11 3 -14 6 -6 3 7 2 16 -1 19 -3 4 -6 -2 -5 -13z"/>
<path d="M850 617 c0 -5 9 -20 20 -34 11 -14 20 -21 20 -15 0 12 -39 60 -40
49z"/>
<path d="M765 561 c-3 -5 -1 -12 5 -16 5 -3 10 1 10 9 0 18 -6 21 -15 7z"/>
<path d="M810 559 c0 -5 5 -7 10 -4 6 3 10 8 10 11 0 2 -4 4 -10 4 -5 0 -10
-5 -10 -11z"/>
<path d="M914 559 c-4 -7 -3 -9 4 -5 5 3 13 0 15 -6 4 -9 6 -10 6 -1 1 17 -16
25 -25 12z"/>
<path d="M709 545 c17 -34 31 -51 31 -39 0 7 -9 22 -21 35 -16 19 -18 20 -10
4z"/>
<path d="M822 510 c-10 -16 -9 -18 3 -14 10 4 15 0 15 -15 0 -12 5 -21 10 -21
6 0 10 -8 10 -17 0 -10 5 -25 10 -33 15 -22 1 35 -20 82 -15 34 -17 35 -28 18z"/>
<path d="M930 523 c0 -6 8 -17 18 -24 16 -13 16 -13 2 6 -8 11 -16 22 -17 24
-2 2 -3 0 -3 -6z"/>
<path d="M606 483 c-6 -14 -5 -15 5 -6 7 7 10 15 7 18 -3 3 -9 -2 -12 -12z"/>
<path d="M750 490 c-8 -5 -10 -10 -5 -10 6 0 17 5 25 10 8 5 11 10 5 10 -5 0
-17 -5 -25 -10z"/>
<path d="M1100 496 c0 -2 7 -7 16 -10 8 -3 12 -2 9 4 -6 10 -25 14 -25 6z"/>
<path d="M2641 482 c-6 -12 -11 -27 -11 -34 0 -7 7 0 15 16 9 16 13 31 11 33
-2 3 -9 -4 -15 -15z"/>
<path d="M933 475 c0 -8 5 -11 10 -8 5 3 13 -1 18 -8 6 -10 9 -10 9 -2 0 7 -8
17 -18 22 -14 7 -19 6 -19 -4z"/>
<path d="M572 445 c0 -16 2 -22 5 -12 2 9 2 23 0 30 -3 6 -5 -1 -5 -18z"/>
<path d="M620 457 c0 -20 36 -51 45 -38 3 6 -1 11 -9 11 -9 0 -16 6 -16 14 0
8 -4 18 -10 21 -5 3 -10 0 -10 -8z"/>
<path d="M696 454 c-23 -23 -20 -30 4 -9 11 10 20 20 20 22 0 7 -9 2 -24 -13z"/>
<path d="M715 431 c-3 -5 -2 -12 3 -15 5 -3 9 1 9 9 0 17 -3 19 -12 6z"/>
<path d="M970 426 c0 -8 4 -17 9 -20 5 -4 7 3 4 14 -6 23 -13 26 -13 6z"/>
<path d="M490 421 c0 -6 4 -13 10 -16 6 -3 7 1 4 9 -7 18 -14 21 -14 7z"/>
<path d="M1920 410 c0 -5 5 -10 11 -10 5 0 7 5 4 10 -3 6 -8 10 -11 10 -2 0
-4 -4 -4 -10z"/>
<path d="M2616 403 c-6 -14 -5 -15 5 -6 7 7 10 15 7 18 -3 3 -9 -2 -12 -12z"/>
<path d="M935 388 c3 -13 10 -37 14 -55 5 -17 18 -51 29 -75 12 -24 35 -86 53
-138 36 -110 48 -136 49 -105 0 12 5 26 11 32 8 8 7 13 -2 18 -7 5 -10 4 -5
-3 3 -6 2 -13 -4 -17 -5 -3 -10 2 -10 12 0 10 -6 27 -14 38 -20 29 -31 69 -16
60 6 -4 -6 28 -28 72 -22 43 -47 102 -56 131 -17 50 -36 77 -21 30z"/>
<path d="M1781 392 c-17 -31 -13 -40 5 -14 9 13 14 26 11 29 -3 2 -10 -4 -16
-15z"/>
<path d="M978 379 c25 -23 33 -24 26 -5 -3 8 -15 16 -26 19 l-20 6 20 -20z"/>
<path d="M580 380 c-13 -8 -12 -10 3 -10 9 0 17 5 17 10 0 12 -1 12 -20 0z"/>
<path d="M730 381 c0 -5 5 -13 10 -16 6 -3 10 -2 10 4 0 5 -4 13 -10 16 -5 3
-10 2 -10 -4z"/>
<path d="M485 360 c-8 -13 5 -13 25 0 13 8 13 10 -2 10 -9 0 -20 -4 -23 -10z"/>
<path d="M1976 362 c-3 -6 -1 -14 5 -17 14 -9 20 -2 10 14 -6 8 -11 9 -15 3z"/>
<path d="M506 342 c-3 -5 8 -6 25 -4 16 2 29 6 29 8 0 8 -49 4 -54 -4z"/>
<path d="M1756 333 c-6 -14 -5 -15 5 -6 7 7 10 15 7 18 -3 3 -9 -2 -12 -12z"/>
<path d="M419 319 l-24 -20 28 17 c15 9 27 18 27 20 0 8 -8 4 -31 -17z"/>
<path d="M891 324 c0 -11 3 -14 6 -6 3 7 2 16 -1 19 -3 4 -6 -2 -5 -13z"/>
<path d="M1942 327 c-12 -14 -12 -57 -1 -57 4 0 9 16 11 35 5 40 4 40 -10 22z"/>
<path d="M1126 322 c-3 -5 1 -9 9 -9 8 0 12 4 9 9 -3 4 -7 8 -9 8 -2 0 -6 -4
-9 -8z"/>
<path d="M1979 304 c-5 -15 -8 -29 -5 -31 2 -2 8 10 14 26 13 38 5 41 -9 5z"/>
<path d="M290 300 c0 -5 5 -10 11 -10 5 0 7 5 4 10 -3 6 -8 10 -11 10 -2 0 -4
-4 -4 -10z"/>
<path d="M2091 283 c-1 -12 4 -25 9 -28 12 -7 12 2 0 30 -8 19 -9 19 -9 -2z"/>
<path d="M896 277 c3 -10 9 -15 12 -12 3 3 0 11 -7 18 -10 9 -11 8 -5 -6z"/>
<path d="M358 264 c-39 -21 -35 -28 5 -8 37 19 44 24 31 24 -5 -1 -21 -8 -36
-16z"/>
<path d="M2688 262 c-3 -11 0 -19 7 -19 7 0 10 8 7 19 -2 10 -6 18 -7 18 -1 0
-5 -8 -7 -18z"/>
<path d="M1031 254 c0 -11 3 -14 6 -6 3 7 2 16 -1 19 -3 4 -6 -2 -5 -13z"/>
<path d="M1726 254 c-4 -9 -4 -19 -1 -22 2 -3 7 3 11 12 4 9 4 19 1 22 -2 3
-7 -3 -11 -12z"/>
<path d="M792 240 c0 -14 2 -19 5 -12 2 6 2 18 0 25 -3 6 -5 1 -5 -13z"/>
<path d="M1995 249 c-4 -6 -5 -12 -2 -15 2 -3 7 2 10 11 7 17 1 20 -8 4z"/>
<path d="M900 239 c0 -5 5 -7 10 -4 6 3 10 8 10 11 0 2 -4 4 -10 4 -5 0 -10
-5 -10 -11z"/>
<path d="M1905 241 c-3 -5 -1 -12 5 -16 5 -3 10 1 10 9 0 18 -6 21 -15 7z"/>
<path d="M120 221 c0 -6 4 -13 10 -16 6 -3 7 1 4 9 -7 18 -14 21 -14 7z"/>
<path d="M1840 183 c-13 -25 -26 -57 -28 -71 -3 -22 -1 -24 12 -12 9 7 16 23
16 36 0 12 7 29 15 38 8 8 15 19 15 25 0 6 5 11 10 11 6 0 10 5 10 10 0 26
-27 5 -50 -37z"/>
<path d="M580 205 c0 -8 4 -15 10 -15 5 0 7 7 4 15 -4 8 -8 15 -10 15 -2 0 -4
-7 -4 -15z"/>
<path d="M2571 204 c0 -11 3 -14 6 -6 3 7 2 16 -1 19 -3 4 -6 -2 -5 -13z"/>
<path d="M270 200 c-9 -6 -10 -10 -3 -10 6 0 15 5 18 10 8 12 4 12 -15 0z"/>
<path d="M2122 185 c6 -14 13 -23 16 -21 7 7 -9 46 -18 46 -5 0 -4 -11 2 -25z"/>
<path d="M1210 190 c0 -5 5 -10 11 -10 5 0 7 5 4 10 -3 6 -8 10 -11 10 -2 0
-4 -4 -4 -10z"/>
<path d="M827 175 c3 -8 9 -12 14 -9 12 7 11 11 -5 17 -10 4 -13 1 -9 -8z"/>
<path d="M2035 180 c-3 -5 -1 -10 4 -10 6 0 11 5 11 10 0 6 -2 10 -4 10 -3 0
-8 -4 -11 -10z"/>
<path d="M1065 170 c3 -5 8 -10 11 -10 2 0 4 5 4 10 0 6 -5 10 -11 10 -5 0 -7
-4 -4 -10z"/>
<path d="M1435 170 c3 -5 8 -10 11 -10 2 0 4 5 4 10 0 6 -5 10 -11 10 -5 0 -7
-4 -4 -10z"/>
<path d="M95 160 c-3 -5 -1 -10 4 -10 6 0 11 5 11 10 0 6 -2 10 -4 10 -3 0 -8
-4 -11 -10z"/>
<path d="M1960 100 c3 -38 2 -72 -3 -74 -4 -3 -2 -3 5 -2 20 4 20 146 0 146
-4 0 -5 -31 -2 -70z"/>
<path d="M1140 139 c0 -5 5 -7 10 -4 6 3 10 8 10 11 0 2 -4 4 -10 4 -5 0 -10
-5 -10 -11z"/>
<path d="M872 112 c13 -16 25 -25 27 -20 4 11 -28 48 -41 48 -5 0 1 -13 14
-28z"/>
<path d="M1054 132 c12 -21 146 -132 158 -132 7 0 1 8 -12 17 -26 18 -62 48
-89 73 -34 32 -64 54 -57 42z"/>
<path d="M1170 125 c-7 -9 -8 -15 -2 -15 5 0 12 7 16 15 3 8 4 15 2 15 -2 0
-9 -7 -16 -15z"/>
<path d="M1314 131 c4 -5 1 -12 -4 -14 -6 -3 -5 -4 2 -3 15 3 23 26 8 26 -6 0
-9 -4 -6 -9z"/>
<path d="M1131 101 c13 -11 26 -17 28 -15 5 5 -30 33 -43 34 -4 0 2 -9 15 -19z"/>
<path d="M633 103 c-7 -2 -13 -10 -13 -15 0 -6 3 -8 7 -4 4 3 16 -12 27 -36
12 -23 28 -44 36 -47 12 -3 11 1 -3 20 -21 29 -41 71 -39 82 1 4 1 7 0 6 -2 0
-9 -3 -15 -6z"/>
<path d="M1361 82 c-1 -8 -6 -10 -13 -6 -10 5 -10 4 -1 -6 15 -16 28 -8 20 12
-4 11 -6 11 -6 0z"/>
<path d="M1417 83 c-4 -3 -7 -11 -7 -17 0 -6 5 -5 12 2 6 6 9 14 7 17 -3 3 -9
2 -12 -2z"/>
<path d="M2585 69 c-4 -6 -5 -12 -2 -15 2 -3 7 2 10 11 7 17 1 20 -8 4z"/>
<path d="M2130 60 c0 -5 5 -10 11 -10 5 0 7 5 4 10 -3 6 -8 10 -11 10 -2 0 -4
-4 -4 -10z"/>
<path d="M1181 57 c2 -1 13 -9 24 -17 19 -14 19 -14 6 3 -7 9 -18 17 -24 17
-6 0 -8 -1 -6 -3z"/>
<path d="M1315 50 c-3 -5 1 -10 10 -10 9 0 13 5 10 10 -3 6 -8 10 -10 10 -2 0
-7 -4 -10 -10z"/>
<path d="M267 37 c-3 -8 1 -14 8 -14 7 0 11 6 8 14 -3 7 -6 13 -8 13 -2 0 -5
-6 -8 -13z"/>
<path d="M960 30 c0 -5 5 -10 11 -10 5 0 7 5 4 10 -3 6 -8 10 -11 10 -2 0 -4
-4 -4 -10z"/>
<path d="M1001 24 c0 -11 3 -14 6 -6 3 7 2 16 -1 19 -3 4 -6 -2 -5 -13z"/>
<path d="M1497 13 c-3 -5 6 -8 19 -8 13 0 24 3 24 8 0 4 -9 7 -19 7 -11 0 -22
-3 -24 -7z"/>
</g>
</svg>
