<svg width="359" height="60" viewBox="0 0 359 60" fill="none" xmlns="http://www.w3.org/2000/svg">
<path d="M7.05001 28.18C5.77001 28.18 4.70001 27.99 3.84001 27.61C2.98001 27.21 2.33001 26.77 1.89001 26.29C1.47001 25.79 1.26001 25.41 1.26001 25.15C1.26001 25.05 1.29001 24.95 1.35001 24.85C1.41001 24.75 1.48001 24.67 1.56001 24.61C1.64001 24.55 1.71001 24.52 1.77001 24.52C1.91001 24.52 2.07001 24.65 2.25001 24.91C2.43001 25.17 2.69001 25.47 3.03001 25.81C3.37001 26.15 3.84001 26.45 4.44001 26.71C5.06001 26.97 5.88001 27.1 6.90001 27.1C8.00001 27.1 8.92001 26.92 9.66001 26.56C10.4 26.18 10.96 25.63 11.34 24.91C11.72 24.19 11.91 23.3 11.91 22.24C11.91 21.14 11.72 20.26 11.34 19.6C10.98 18.94 10.5 18.41 9.90001 18.01C9.30001 17.61 8.64001 17.29 7.92001 17.05C7.22001 16.79 6.51001 16.54 5.79001 16.3C5.07001 16.06 4.41001 15.75 3.81001 15.37C3.21001 14.99 2.72001 14.48 2.34001 13.84C1.98001 13.18 1.80001 12.32 1.80001 11.26C1.80001 10.18 1.99001 9.3 2.37001 8.62001C2.75001 7.94001 3.24001 7.42001 3.84001 7.06001C4.44001 6.68001 5.08001 6.42001 5.76001 6.28C6.44001 6.14001 7.09001 6.07001 7.71001 6.07001C8.33001 6.07001 8.92001 6.12001 9.48001 6.22001C10.04 6.32001 10.54 6.45001 10.98 6.61C11.44 6.75001 11.8 6.91001 12.06 7.09001C12.32 7.27001 12.45 7.45001 12.45 7.63001C12.45 7.71001 12.42 7.80001 12.36 7.90001C12.32 8.00001 12.26 8.09001 12.18 8.17001C12.1 8.25001 12.01 8.29001 11.91 8.29001C11.77 8.29001 11.54 8.20001 11.22 8.02001C10.9 7.82001 10.45 7.63 9.87001 7.45C9.31001 7.25 8.58001 7.15 7.68001 7.15C6.94001 7.15 6.20001 7.26001 5.46001 7.48001C4.72001 7.70001 4.10001 8.1 3.60001 8.68C3.12001 9.26001 2.88001 10.09 2.88001 11.17C2.88001 12.09 3.06001 12.83 3.42001 13.39C3.80001 13.93 4.29001 14.36 4.89001 14.68C5.49001 15 6.14001 15.28 6.84001 15.52C7.56001 15.74 8.28001 15.99 9.00001 16.27C9.72001 16.55 10.38 16.92 10.98 17.38C11.58 17.82 12.06 18.42 12.42 19.18C12.8 19.94 12.99 20.93 12.99 22.15C12.99 23.57 12.73 24.73 12.21 25.63C11.71 26.51 11.01 27.16 10.11 27.58C9.23001 27.98 8.21001 28.18 7.05001 28.18Z" fill="#FFA339"/>
<path d="M27.2834 28C27.1434 28 27.0134 27.96 26.8934 27.88C26.7934 27.78 26.7434 27.64 26.7434 27.46V7.15H21.4034C21.2434 7.15 21.1134 7.1 21.0134 7C20.9134 6.88 20.8634 6.75001 20.8634 6.61C20.8634 6.47001 20.9134 6.35001 21.0134 6.25001C21.1134 6.13001 21.2434 6.07001 21.4034 6.07001H33.1334C33.3134 6.07001 33.4434 6.12001 33.5234 6.22001C33.6234 6.32001 33.6734 6.44001 33.6734 6.58001C33.6734 6.72001 33.6334 6.85001 33.5534 6.97001C33.4734 7.09001 33.3334 7.15 33.1334 7.15H27.8234V27.46C27.8234 27.64 27.7634 27.78 27.6434 27.88C27.5434 27.96 27.4234 28 27.2834 28Z" fill="#FFA339"/>
<path d="M41.3857 28C41.3057 28 41.2157 27.98 41.1157 27.94C41.0357 27.9 40.9657 27.85 40.9057 27.79C40.8657 27.71 40.8457 27.62 40.8457 27.52C40.8457 27.44 40.8557 27.38 40.8757 27.34L47.3857 6.31001C47.4257 6.15002 47.4957 6.04002 47.5957 5.98002C47.6957 5.92002 47.8057 5.89001 47.9257 5.89001C48.0457 5.89001 48.1557 5.93001 48.2557 6.01001C48.3757 6.07001 48.4557 6.17002 48.4957 6.31001L54.9457 27.34C54.9657 27.38 54.9757 27.43 54.9757 27.49C54.9757 27.57 54.9457 27.65 54.8857 27.73C54.8257 27.81 54.7457 27.88 54.6457 27.94C54.5657 27.98 54.4757 28 54.3757 28C54.2757 28 54.1757 27.97 54.0757 27.91C53.9957 27.85 53.9357 27.75 53.8957 27.61L52.3657 22.69H43.4257L41.9257 27.61C41.8857 27.75 41.8157 27.85 41.7157 27.91C41.6157 27.97 41.5057 28 41.3857 28ZM43.7557 21.61H52.0357L47.9257 8.17002L43.7557 21.61Z" fill="#FFA339"/>
<path d="M64.7702 28C64.6302 28 64.5002 27.96 64.3802 27.88C64.2802 27.8 64.2302 27.67 64.2302 27.49V6.61C64.2302 6.43 64.2802 6.3 64.3802 6.22001C64.5002 6.12001 64.6302 6.07001 64.7702 6.07001H75.4502C75.6302 6.07001 75.7602 6.13001 75.8402 6.25001C75.9202 6.35001 75.9602 6.46001 75.9602 6.58001C75.9602 6.72001 75.9102 6.85001 75.8102 6.97001C75.7302 7.09001 75.6102 7.15 75.4502 7.15H65.3102V16.48H70.1102C70.2702 16.48 70.3902 16.54 70.4702 16.66C70.5702 16.76 70.6202 16.89 70.6202 17.05C70.6202 17.17 70.5802 17.29 70.5002 17.41C70.4202 17.51 70.2902 17.56 70.1102 17.56H65.3102V27.49C65.3102 27.67 65.2502 27.8 65.1302 27.88C65.0302 27.96 64.9102 28 64.7702 28Z" fill="#FFA339"/>
<path d="M85.448 28C85.308 28 85.178 27.96 85.058 27.88C84.958 27.8 84.908 27.67 84.908 27.49V6.61C84.908 6.43 84.958 6.3 85.058 6.22001C85.178 6.12001 85.308 6.07001 85.448 6.07001H96.128C96.308 6.07001 96.438 6.13001 96.518 6.25001C96.598 6.35001 96.638 6.46001 96.638 6.58001C96.638 6.72001 96.588 6.85001 96.488 6.97001C96.408 7.09001 96.288 7.15 96.128 7.15H85.988V16.48H90.788C90.948 16.48 91.068 16.54 91.148 16.66C91.248 16.76 91.298 16.89 91.298 17.05C91.298 17.17 91.258 17.29 91.178 17.41C91.098 17.51 90.968 17.56 90.788 17.56H85.988V27.49C85.988 27.67 85.928 27.8 85.808 27.88C85.708 27.96 85.588 28 85.448 28Z" fill="#FFA339"/>
<path d="M104.386 28C104.306 28 104.216 27.98 104.116 27.94C104.036 27.9 103.966 27.85 103.906 27.79C103.866 27.71 103.846 27.62 103.846 27.52C103.846 27.44 103.856 27.38 103.876 27.34L110.386 6.31001C110.426 6.15002 110.496 6.04002 110.596 5.98002C110.696 5.92002 110.806 5.89001 110.926 5.89001C111.046 5.89001 111.156 5.93001 111.256 6.01001C111.376 6.07001 111.456 6.17002 111.496 6.31001L117.946 27.34C117.966 27.38 117.976 27.43 117.976 27.49C117.976 27.57 117.946 27.65 117.886 27.73C117.826 27.81 117.746 27.88 117.646 27.94C117.566 27.98 117.476 28 117.376 28C117.276 28 117.176 27.97 117.076 27.91C116.996 27.85 116.936 27.75 116.896 27.61L115.366 22.69H106.426L104.926 27.61C104.886 27.75 104.816 27.85 104.716 27.91C104.616 27.97 104.506 28 104.386 28ZM106.756 21.61H115.036L110.926 8.17002L106.756 21.61Z" fill="#FFA339"/>
<path d="M127.77 28C127.63 28 127.5 27.96 127.38 27.88C127.28 27.78 127.23 27.64 127.23 27.46V6.58001C127.23 6.38001 127.28 6.25001 127.38 6.19C127.5 6.11001 127.63 6.07001 127.77 6.07001C127.91 6.07001 128.04 6.14001 128.16 6.28C128.28 6.42001 128.39 6.58001 128.49 6.76001C128.59 6.92001 128.66 7.05 128.7 7.15L137.88 25.33V6.58001C137.88 6.40001 137.93 6.27001 138.03 6.19C138.15 6.11001 138.28 6.07001 138.42 6.07001C138.56 6.07001 138.68 6.11001 138.78 6.19C138.9 6.27001 138.96 6.40001 138.96 6.58001V27.46C138.96 27.64 138.9 27.78 138.78 27.88C138.68 27.96 138.56 28 138.42 28C138.22 28 138.05 27.87 137.91 27.61C137.77 27.35 137.65 27.12 137.55 26.92L128.31 8.71001V27.46C128.31 27.64 128.25 27.78 128.13 27.88C128.03 27.96 127.91 28 127.77 28Z" fill="#FFA339"/>
<path d="M154.05 28.18C152.77 28.18 151.7 27.99 150.84 27.61C149.98 27.21 149.33 26.77 148.89 26.29C148.47 25.79 148.26 25.41 148.26 25.15C148.26 25.05 148.29 24.95 148.35 24.85C148.41 24.75 148.48 24.67 148.56 24.61C148.64 24.55 148.71 24.52 148.77 24.52C148.91 24.52 149.07 24.65 149.25 24.91C149.43 25.17 149.69 25.47 150.03 25.81C150.37 26.15 150.84 26.45 151.44 26.71C152.06 26.97 152.88 27.1 153.9 27.1C155 27.1 155.92 26.92 156.66 26.56C157.4 26.18 157.96 25.63 158.34 24.91C158.72 24.19 158.91 23.3 158.91 22.24C158.91 21.14 158.72 20.26 158.34 19.6C157.98 18.94 157.5 18.41 156.9 18.01C156.3 17.61 155.64 17.29 154.92 17.05C154.22 16.79 153.51 16.54 152.79 16.3C152.07 16.06 151.41 15.75 150.81 15.37C150.21 14.99 149.72 14.48 149.34 13.84C148.98 13.18 148.8 12.32 148.8 11.26C148.8 10.18 148.99 9.30001 149.37 8.62001C149.75 7.94001 150.24 7.42001 150.84 7.06001C151.44 6.68001 152.08 6.42001 152.76 6.28001C153.44 6.14001 154.09 6.07001 154.71 6.07001C155.33 6.07001 155.92 6.12001 156.48 6.22001C157.04 6.32001 157.54 6.45001 157.98 6.61001C158.44 6.75001 158.8 6.91001 159.06 7.09001C159.32 7.27001 159.45 7.45001 159.45 7.63001C159.45 7.71001 159.42 7.80001 159.36 7.90001C159.32 8.00001 159.26 8.09001 159.18 8.17001C159.1 8.25001 159.01 8.29001 158.91 8.29001C158.77 8.29001 158.54 8.20001 158.22 8.02001C157.9 7.82001 157.45 7.63001 156.87 7.45001C156.31 7.25001 155.58 7.15001 154.68 7.15001C153.94 7.15001 153.2 7.26001 152.46 7.48001C151.72 7.70001 151.1 8.10001 150.6 8.68001C150.12 9.26001 149.88 10.09 149.88 11.17C149.88 12.09 150.06 12.83 150.42 13.39C150.8 13.93 151.29 14.36 151.89 14.68C152.49 15 153.14 15.28 153.84 15.52C154.56 15.74 155.28 15.99 156 16.27C156.72 16.55 157.38 16.92 157.98 17.38C158.58 17.82 159.06 18.42 159.42 19.18C159.8 19.94 159.99 20.93 159.99 22.15C159.99 23.57 159.73 24.73 159.21 25.63C158.71 26.51 158.01 27.16 157.11 27.58C156.23 27.98 155.21 28.18 154.05 28.18Z" fill="black"/>
<path d="M174.283 28C174.143 28 174.013 27.96 173.893 27.88C173.793 27.78 173.743 27.64 173.743 27.46V7.15001H168.403C168.243 7.15001 168.113 7.10001 168.013 7.00001C167.913 6.88001 167.863 6.75001 167.863 6.61001C167.863 6.47001 167.913 6.35001 168.013 6.25001C168.113 6.13001 168.243 6.07001 168.403 6.07001H180.133C180.313 6.07001 180.443 6.12001 180.523 6.22001C180.623 6.32001 180.673 6.44001 180.673 6.58001C180.673 6.72001 180.633 6.85001 180.553 6.97001C180.473 7.09001 180.333 7.15001 180.133 7.15001H174.823V27.46C174.823 27.64 174.763 27.78 174.643 27.88C174.543 27.96 174.423 28 174.283 28Z" fill="black"/>
<path d="M200.776 28C200.576 28 200.406 27.87 200.266 27.61C200.126 27.35 200.006 27.12 199.906 26.92L195.106 17.56H190.666V27.46C190.666 27.64 190.606 27.78 190.486 27.88C190.386 27.96 190.266 28 190.126 28C189.986 28 189.856 27.96 189.736 27.88C189.636 27.78 189.586 27.64 189.586 27.46V6.58001C189.586 6.44001 189.636 6.33001 189.736 6.25001C189.836 6.15001 189.966 6.09001 190.126 6.07001H195.136C196.236 6.07001 197.256 6.25001 198.196 6.61001C199.136 6.95001 199.886 7.54001 200.446 8.38001C201.026 9.20001 201.316 10.34 201.316 11.8C201.316 13.08 201.086 14.12 200.626 14.92C200.186 15.72 199.586 16.32 198.826 16.72C198.066 17.12 197.216 17.38 196.276 17.5L201.226 27.13C201.266 27.19 201.286 27.25 201.286 27.31C201.306 27.37 201.316 27.42 201.316 27.46C201.316 27.56 201.286 27.65 201.226 27.73C201.186 27.81 201.126 27.88 201.046 27.94C200.966 27.98 200.876 28 200.776 28ZM190.666 16.48H195.136C196.636 16.48 197.856 16.12 198.796 15.4C199.756 14.66 200.236 13.46 200.236 11.8C200.236 10.14 199.756 8.95001 198.796 8.23001C197.856 7.51001 196.636 7.15001 195.136 7.15001H190.666V16.48Z" fill="black"/>
<path d="M216.489 28.18C215.389 28.18 214.399 27.98 213.519 27.58C212.639 27.16 211.939 26.5 211.419 25.6C210.899 24.7 210.639 23.5 210.639 22V12.25C210.639 10.75 210.899 9.54996 211.419 8.64996C211.939 7.74996 212.639 7.09996 213.519 6.69996C214.399 6.27996 215.389 6.06996 216.489 6.06996C217.589 6.06996 218.579 6.27996 219.459 6.69996C220.359 7.09996 221.069 7.74996 221.589 8.64996C222.109 9.54996 222.369 10.75 222.369 12.25V22C222.369 23.5 222.109 24.7 221.589 25.6C221.069 26.5 220.359 27.16 219.459 27.58C218.579 27.98 217.589 28.18 216.489 28.18ZM216.489 27.1C217.989 27.1 219.159 26.69 219.999 25.87C220.859 25.03 221.289 23.74 221.289 22V12.25C221.289 10.51 220.859 9.22996 219.999 8.40996C219.159 7.56996 217.989 7.14996 216.489 7.14996C214.989 7.14996 213.819 7.56996 212.979 8.40996C212.139 9.22996 211.719 10.51 211.719 12.25V22C211.719 23.74 212.139 25.03 212.979 25.87C213.819 26.69 214.989 27.1 216.489 27.1ZM218.199 2.22996C217.939 2.22996 217.719 2.14996 217.539 1.98996C217.379 1.80996 217.299 1.58996 217.299 1.32996C217.299 1.06996 217.379 0.85996 217.539 0.699961C217.719 0.539961 217.939 0.459961 218.199 0.459961C218.459 0.459961 218.669 0.539961 218.829 0.699961C218.989 0.85996 219.069 1.06996 219.069 1.32996C219.069 1.58996 218.989 1.80996 218.829 1.98996C218.669 2.14996 218.459 2.22996 218.199 2.22996ZM214.869 2.22996C214.609 2.22996 214.389 2.14996 214.209 1.98996C214.049 1.80996 213.969 1.58996 213.969 1.32996C213.969 1.06996 214.049 0.85996 214.209 0.699961C214.389 0.539961 214.609 0.459961 214.869 0.459961C215.129 0.459961 215.339 0.539961 215.499 0.699961C215.659 0.85996 215.739 1.06996 215.739 1.32996C215.739 1.58996 215.659 1.80996 215.499 1.98996C215.339 2.14996 215.129 2.22996 214.869 2.22996Z" fill="black"/>
<path d="M233.678 28C233.538 28 233.408 27.96 233.288 27.88C233.188 27.78 233.138 27.64 233.138 27.46V6.58001C233.138 6.38001 233.188 6.25001 233.288 6.19001C233.408 6.11001 233.538 6.07001 233.678 6.07001C233.818 6.07001 233.948 6.14001 234.068 6.28001C234.188 6.42001 234.298 6.58001 234.398 6.76001C234.498 6.92001 234.568 7.05001 234.608 7.15001L240.428 18.61L246.278 7.15001C246.338 7.05001 246.408 6.92001 246.488 6.76001C246.588 6.58001 246.698 6.42001 246.818 6.28001C246.958 6.14001 247.088 6.07001 247.208 6.07001C247.368 6.07001 247.498 6.11001 247.598 6.19001C247.698 6.25001 247.748 6.38001 247.748 6.58001V27.46C247.748 27.64 247.688 27.78 247.568 27.88C247.468 27.96 247.348 28 247.208 28C247.068 28 246.938 27.96 246.818 27.88C246.718 27.78 246.668 27.64 246.668 27.46V8.71001L240.998 19.63C240.898 19.83 240.798 19.98 240.698 20.08C240.618 20.16 240.528 20.2 240.428 20.2C240.348 20.2 240.258 20.16 240.158 20.08C240.058 19.98 239.958 19.83 239.858 19.63L234.218 8.71001V27.46C234.218 27.64 234.158 27.78 234.038 27.88C233.938 27.96 233.818 28 233.678 28Z" fill="black"/>
<path d="M263.298 28.18C262.018 28.18 260.948 27.99 260.088 27.61C259.228 27.21 258.578 26.77 258.138 26.29C257.718 25.79 257.508 25.41 257.508 25.15C257.508 25.05 257.538 24.95 257.598 24.85C257.658 24.75 257.728 24.67 257.808 24.61C257.888 24.55 257.958 24.52 258.018 24.52C258.158 24.52 258.318 24.65 258.498 24.91C258.678 25.17 258.938 25.47 259.278 25.81C259.618 26.15 260.088 26.45 260.688 26.71C261.308 26.97 262.128 27.1 263.148 27.1C264.248 27.1 265.168 26.92 265.908 26.56C266.648 26.18 267.208 25.63 267.588 24.91C267.968 24.19 268.158 23.3 268.158 22.24C268.158 21.14 267.968 20.26 267.588 19.6C267.228 18.94 266.748 18.41 266.148 18.01C265.548 17.61 264.888 17.29 264.168 17.05C263.468 16.79 262.758 16.54 262.038 16.3C261.318 16.06 260.658 15.75 260.058 15.37C259.458 14.99 258.968 14.48 258.588 13.84C258.228 13.18 258.048 12.32 258.048 11.26C258.048 10.18 258.238 9.30001 258.618 8.62001C258.998 7.94001 259.488 7.42001 260.088 7.06001C260.688 6.68001 261.328 6.42001 262.008 6.28001C262.688 6.14001 263.338 6.07001 263.958 6.07001C264.578 6.07001 265.168 6.12001 265.728 6.22001C266.288 6.32001 266.788 6.45001 267.228 6.61001C267.688 6.75001 268.048 6.91001 268.308 7.09001C268.568 7.27001 268.698 7.45001 268.698 7.63001C268.698 7.71001 268.668 7.80001 268.608 7.90001C268.568 8.00001 268.508 8.09001 268.428 8.17001C268.348 8.25001 268.258 8.29001 268.158 8.29001C268.018 8.29001 267.788 8.20001 267.468 8.02001C267.148 7.82001 266.698 7.63001 266.118 7.45001C265.558 7.25001 264.828 7.15001 263.928 7.15001C263.188 7.15001 262.448 7.26001 261.708 7.48001C260.968 7.70001 260.348 8.10001 259.848 8.68001C259.368 9.26001 259.128 10.09 259.128 11.17C259.128 12.09 259.308 12.83 259.668 13.39C260.048 13.93 260.538 14.36 261.138 14.68C261.738 15 262.388 15.28 263.088 15.52C263.808 15.74 264.528 15.99 265.248 16.27C265.968 16.55 266.628 16.92 267.228 17.38C267.828 17.82 268.308 18.42 268.668 19.18C269.048 19.94 269.238 20.93 269.238 22.15C269.238 23.57 268.978 24.73 268.458 25.63C267.958 26.51 267.258 27.16 266.358 27.58C265.478 27.98 264.458 28.18 263.298 28.18Z" fill="black"/>
<path d="M279.721 28C279.581 28 279.451 27.96 279.331 27.88C279.231 27.78 279.181 27.64 279.181 27.46V6.58001C279.181 6.40001 279.231 6.27001 279.331 6.19001C279.451 6.11001 279.581 6.07001 279.721 6.07001C279.861 6.07001 279.981 6.11001 280.081 6.19001C280.201 6.27001 280.261 6.40001 280.261 6.58001V16.09H289.831V6.58001C289.831 6.40001 289.881 6.27001 289.981 6.19001C290.101 6.11001 290.231 6.07001 290.371 6.07001C290.511 6.07001 290.631 6.11001 290.731 6.19001C290.851 6.27001 290.911 6.40001 290.911 6.58001V27.46C290.911 27.64 290.851 27.78 290.731 27.88C290.631 27.96 290.511 28 290.371 28C290.231 28 290.101 27.96 289.981 27.88C289.881 27.78 289.831 27.64 289.831 27.46V17.17H280.261V27.46C280.261 27.64 280.201 27.78 280.081 27.88C279.981 27.96 279.861 28 279.721 28Z" fill="black"/>
<path d="M307.521 28.18C306.421 28.18 305.431 27.98 304.551 27.58C303.671 27.16 302.971 26.5 302.451 25.6C301.931 24.7 301.671 23.5 301.671 22V12.25C301.671 10.75 301.931 9.55001 302.451 8.65001C302.971 7.75001 303.671 7.10001 304.551 6.70001C305.431 6.28001 306.421 6.07001 307.521 6.07001C308.621 6.07001 309.611 6.28001 310.491 6.70001C311.391 7.10001 312.101 7.75001 312.621 8.65001C313.141 9.55001 313.401 10.75 313.401 12.25V22C313.401 23.5 313.141 24.7 312.621 25.6C312.101 26.5 311.391 27.16 310.491 27.58C309.611 27.98 308.621 28.18 307.521 28.18ZM307.521 27.1C309.021 27.1 310.191 26.69 311.031 25.87C311.891 25.03 312.321 23.74 312.321 22V12.25C312.321 10.51 311.891 9.23001 311.031 8.41001C310.191 7.57001 309.021 7.15001 307.521 7.15001C306.021 7.15001 304.851 7.57001 304.011 8.41001C303.171 9.23001 302.751 10.51 302.751 12.25V22C302.751 23.74 303.171 25.03 304.011 25.87C304.851 26.69 306.021 27.1 307.521 27.1Z" fill="black"/>
<path d="M324.71 28C324.57 28 324.44 27.96 324.32 27.88C324.22 27.78 324.17 27.64 324.17 27.46V6.58001C324.17 6.40001 324.22 6.27001 324.32 6.19001C324.44 6.11001 324.57 6.07001 324.71 6.07001C324.85 6.07001 324.97 6.11001 325.07 6.19001C325.19 6.27001 325.25 6.40001 325.25 6.58001V26.92H334.37C334.53 26.92 334.64 26.98 334.7 27.1C334.78 27.2 334.82 27.32 334.82 27.46C334.82 27.6 334.78 27.73 334.7 27.85C334.64 27.95 334.53 28 334.37 28H324.71Z" fill="black"/>
<path d="M344.274 28C344.134 28 344.004 27.96 343.884 27.88C343.784 27.78 343.734 27.64 343.734 27.46V6.58001C343.734 6.38001 343.784 6.25001 343.884 6.19001C344.004 6.11001 344.134 6.07001 344.274 6.07001C344.414 6.07001 344.544 6.14001 344.664 6.28001C344.784 6.42001 344.894 6.58001 344.994 6.76001C345.094 6.92001 345.164 7.05001 345.204 7.15001L351.024 18.61L356.874 7.15001C356.934 7.05001 357.004 6.92001 357.084 6.76001C357.184 6.58001 357.294 6.42001 357.414 6.28001C357.554 6.14001 357.684 6.07001 357.804 6.07001C357.964 6.07001 358.094 6.11001 358.194 6.19001C358.294 6.25001 358.344 6.38001 358.344 6.58001V27.46C358.344 27.64 358.284 27.78 358.164 27.88C358.064 27.96 357.944 28 357.804 28C357.664 28 357.534 27.96 357.414 27.88C357.314 27.78 357.264 27.64 357.264 27.46V8.71001L351.594 19.63C351.494 19.83 351.394 19.98 351.294 20.08C351.214 20.16 351.124 20.2 351.024 20.2C350.944 20.2 350.854 20.16 350.754 20.08C350.654 19.98 350.554 19.83 350.454 19.63L344.814 8.71001V27.46C344.814 27.64 344.754 27.78 344.634 27.88C344.534 27.96 344.414 28 344.274 28Z" fill="black"/>
<path d="M4.84002 56.12C4.76002 56.12 4.68669 56.0933 4.62002 56.04C4.55335 56 4.50669 55.9333 4.48002 55.84L0.54002 41.82C0.526686 41.78 0.52002 41.74 0.52002 41.7C0.52002 41.62 0.533353 41.56 0.56002 41.52C0.60002 41.4667 0.646686 41.4333 0.70002 41.42C0.753353 41.3933 0.806686 41.38 0.86002 41.38C0.940019 41.38 1.02002 41.4067 1.10002 41.46C1.18002 41.5 1.22669 41.56 1.24002 41.64L4.84002 54.6L6.96002 46.9C7.00002 46.7533 7.06002 46.66 7.14002 46.62C7.22002 46.58 7.30669 46.56 7.40002 46.56C7.50669 46.56 7.58669 46.58 7.64002 46.62C7.70669 46.66 7.76002 46.7533 7.80002 46.9L9.96002 54.6L13.54 41.64C13.5667 41.56 13.6134 41.5 13.68 41.46C13.76 41.4067 13.84 41.38 13.92 41.38C13.9867 41.38 14.04 41.3933 14.08 41.42C14.1334 41.4333 14.1734 41.4667 14.2 41.52C14.24 41.56 14.26 41.62 14.26 41.7C14.26 41.74 14.2534 41.78 14.24 41.82L10.34 55.84C10.3134 55.9333 10.2667 56 10.2 56.04C10.1334 56.0933 10.0534 56.12 9.96002 56.12C9.88002 56.12 9.80669 56.0933 9.74002 56.04C9.67335 56 9.62669 55.9333 9.60002 55.84L7.40002 48L5.22002 55.84C5.19335 55.9333 5.14669 56 5.08002 56.04C5.01335 56.0933 4.93335 56.12 4.84002 56.12Z" fill="black"/>
<path d="M32.8052 56C32.7118 56 32.6252 55.9733 32.5452 55.92C32.4785 55.8533 32.4452 55.76 32.4452 55.64V41.74C32.4452 41.62 32.4785 41.5333 32.5452 41.48C32.6252 41.4133 32.7118 41.38 32.8052 41.38H39.9252C40.0452 41.38 40.1318 41.42 40.1852 41.5C40.2385 41.5667 40.2652 41.64 40.2652 41.72C40.2652 41.8133 40.2318 41.9 40.1652 41.98C40.1118 42.06 40.0318 42.1 39.9252 42.1H33.1652V48.32H36.3652C36.4718 48.32 36.5518 48.36 36.6052 48.44C36.6718 48.5067 36.7052 48.5933 36.7052 48.7C36.7052 48.78 36.6785 48.86 36.6252 48.94C36.5718 49.0067 36.4852 49.04 36.3652 49.04H33.1652V55.28H39.9252C40.0318 55.28 40.1118 55.32 40.1652 55.4C40.2318 55.4667 40.2652 55.5533 40.2652 55.66C40.2652 55.74 40.2385 55.82 40.1852 55.9C40.1318 55.9667 40.0452 56 39.9252 56H32.8052Z" fill="black"/>
<path d="M58.7661 56C58.6594 56 58.5728 55.9667 58.5061 55.9C58.4394 55.8333 58.4061 55.7533 58.4061 55.66V41.74C58.4061 41.62 58.4394 41.5333 58.5061 41.48C58.5861 41.4133 58.6728 41.38 58.7661 41.38H61.7661C62.5394 41.38 63.2328 41.4667 63.8461 41.64C64.4728 41.8 64.9661 42.12 65.3261 42.6C65.6861 43.08 65.8661 43.7867 65.8661 44.72C65.8661 45.5733 65.7061 46.2933 65.3861 46.88C65.0795 47.4533 64.6728 47.8533 64.1661 48.08C64.5794 48.2533 64.9395 48.4867 65.2461 48.78C65.5528 49.06 65.7928 49.4267 65.9661 49.88C66.1395 50.3333 66.2261 50.9067 66.2261 51.6V51.94C66.2261 52.94 66.0528 53.74 65.7061 54.34C65.3595 54.9267 64.8861 55.3533 64.2861 55.62C63.6994 55.8733 63.0394 56 62.3061 56H58.7661ZM59.1261 55.28H62.3061C63.3061 55.28 64.0861 55.0133 64.6461 54.48C65.2195 53.9467 65.5061 53.1 65.5061 51.94V51.6C65.5061 50.44 65.2195 49.6267 64.6461 49.16C64.0861 48.68 63.3061 48.44 62.3061 48.44H59.1261V55.28ZM59.1261 47.72H61.9061C63.0128 47.72 63.8261 47.5133 64.3461 47.1C64.8794 46.6733 65.1461 45.88 65.1461 44.72C65.1461 43.9733 64.9995 43.4133 64.7061 43.04C64.4261 42.6667 64.0328 42.42 63.5261 42.3C63.0328 42.1667 62.4594 42.1 61.8061 42.1H59.1261V47.72Z" fill="black"/>
<path d="M85.313 56C85.2063 56 85.1197 55.9667 85.053 55.9C84.9863 55.8333 84.953 55.7533 84.953 55.66V41.72C84.953 41.6267 84.9863 41.5467 85.053 41.48C85.1197 41.4133 85.2063 41.38 85.313 41.38H88.853C89.5863 41.38 90.2463 41.52 90.833 41.8C91.433 42.0667 91.9063 42.5 92.253 43.1C92.5997 43.7 92.773 44.5 92.773 45.5V51.88C92.773 52.88 92.5997 53.68 92.253 54.28C91.9063 54.88 91.433 55.32 90.833 55.6C90.2463 55.8667 89.5863 56 88.853 56H85.313ZM85.673 55.28H88.853C89.853 55.28 90.633 55.0067 91.193 54.46C91.7663 53.9 92.053 53.04 92.053 51.88V45.5C92.053 44.34 91.7663 43.4867 91.193 42.94C90.633 42.38 89.853 42.1 88.853 42.1H85.673V55.28Z" fill="#FFA339"/>
<path d="M112.309 56C112.216 56 112.129 55.9733 112.049 55.92C111.982 55.8533 111.949 55.76 111.949 55.64V41.74C111.949 41.62 111.982 41.5333 112.049 41.48C112.129 41.4133 112.216 41.38 112.309 41.38H119.429C119.549 41.38 119.636 41.42 119.689 41.5C119.742 41.5667 119.769 41.64 119.769 41.72C119.769 41.8133 119.736 41.9 119.669 41.98C119.616 42.06 119.536 42.1 119.429 42.1H112.669V48.32H115.869C115.976 48.32 116.056 48.36 116.109 48.44C116.176 48.5067 116.209 48.5933 116.209 48.7C116.209 48.78 116.182 48.86 116.129 48.94C116.076 49.0067 115.989 49.04 115.869 49.04H112.669V55.28H119.429C119.536 55.28 119.616 55.32 119.669 55.4C119.736 55.4667 119.769 55.5533 119.769 55.66C119.769 55.74 119.742 55.82 119.689 55.9C119.636 55.9667 119.549 56 119.429 56H112.309Z" fill="#FFA339"/>
<path d="M141.45 56.12C141.37 56.12 141.297 56.0933 141.23 56.04C141.163 56 141.117 55.9333 141.09 55.84L136.75 41.82C136.737 41.7933 136.73 41.7533 136.73 41.7C136.73 41.6333 136.743 41.58 136.77 41.54C136.81 41.4867 136.857 41.4467 136.91 41.42C136.977 41.3933 137.037 41.38 137.09 41.38C137.17 41.38 137.243 41.4 137.31 41.44C137.377 41.48 137.423 41.5467 137.45 41.64L141.45 54.6L145.43 41.64C145.457 41.5467 145.497 41.48 145.55 41.44C145.617 41.4 145.683 41.38 145.75 41.38C145.817 41.38 145.877 41.4 145.93 41.44C145.997 41.4667 146.05 41.5067 146.09 41.56C146.13 41.6 146.15 41.6533 146.15 41.72C146.15 41.7333 146.143 41.7467 146.13 41.76C146.13 41.7733 146.13 41.7933 146.13 41.82L141.83 55.84C141.803 55.9333 141.75 56 141.67 56.04C141.603 56.0933 141.53 56.12 141.45 56.12Z" fill="#FFA339"/>
<path d="M164.641 56C164.548 56 164.461 55.9733 164.381 55.92C164.314 55.8533 164.281 55.76 164.281 55.64V41.74C164.281 41.62 164.314 41.5333 164.381 41.48C164.461 41.4133 164.548 41.38 164.641 41.38H171.761C171.881 41.38 171.968 41.42 172.021 41.5C172.074 41.5667 172.101 41.64 172.101 41.72C172.101 41.8133 172.068 41.9 172.001 41.98C171.948 42.06 171.868 42.1 171.761 42.1H165.001V48.32H168.201C168.308 48.32 168.388 48.36 168.441 48.44C168.508 48.5067 168.541 48.5933 168.541 48.7C168.541 48.78 168.514 48.86 168.461 48.94C168.408 49.0067 168.321 49.04 168.201 49.04H165.001V55.28H171.761C171.868 55.28 171.948 55.32 172.001 55.4C172.068 55.4667 172.101 55.5533 172.101 55.66C172.101 55.74 172.074 55.82 172.021 55.9C171.968 55.9667 171.881 56 171.761 56H164.641Z" fill="#FFA339"/>
<path d="M190.602 56C190.509 56 190.422 55.9733 190.342 55.92C190.275 55.8533 190.242 55.76 190.242 55.64V41.72C190.242 41.6 190.275 41.5133 190.342 41.46C190.422 41.4067 190.509 41.38 190.602 41.38C190.695 41.38 190.775 41.4067 190.842 41.46C190.922 41.5133 190.962 41.6 190.962 41.72V55.28H197.042C197.149 55.28 197.222 55.32 197.262 55.4C197.315 55.4667 197.342 55.5467 197.342 55.64C197.342 55.7333 197.315 55.82 197.262 55.9C197.222 55.9667 197.149 56 197.042 56H190.602Z" fill="#FFA339"/>
<path d="M219.045 56.12C218.312 56.12 217.652 55.9867 217.065 55.72C216.478 55.44 216.012 55 215.665 54.4C215.318 53.8 215.145 53 215.145 52V45.5C215.145 44.5 215.318 43.7 215.665 43.1C216.012 42.5 216.478 42.0667 217.065 41.8C217.652 41.52 218.312 41.38 219.045 41.38C219.778 41.38 220.438 41.52 221.025 41.8C221.625 42.0667 222.098 42.5 222.445 43.1C222.792 43.7 222.965 44.5 222.965 45.5V52C222.965 53 222.792 53.8 222.445 54.4C222.098 55 221.625 55.44 221.025 55.72C220.438 55.9867 219.778 56.12 219.045 56.12ZM219.045 55.4C220.045 55.4 220.825 55.1267 221.385 54.58C221.958 54.02 222.245 53.16 222.245 52V45.5C222.245 44.34 221.958 43.4867 221.385 42.94C220.825 42.38 220.045 42.1 219.045 42.1C218.045 42.1 217.265 42.38 216.705 42.94C216.145 43.4867 215.865 44.34 215.865 45.5V52C215.865 53.16 216.145 54.02 216.705 54.58C217.265 55.1267 218.045 55.4 219.045 55.4Z" fill="#FFA339"/>
<path d="M242.504 56C242.411 56 242.324 55.9733 242.244 55.92C242.178 55.8533 242.144 55.76 242.144 55.64V41.72C242.144 41.6267 242.178 41.5533 242.244 41.5C242.311 41.4333 242.398 41.3933 242.504 41.38H246.044C246.778 41.38 247.438 41.52 248.024 41.8C248.624 42.0667 249.098 42.5 249.444 43.1C249.791 43.7 249.964 44.5 249.964 45.5V45.74C249.964 46.74 249.791 47.5467 249.444 48.16C249.098 48.76 248.624 49.2 248.024 49.48C247.438 49.7467 246.778 49.88 246.044 49.88H242.864V55.64C242.864 55.76 242.824 55.8533 242.744 55.92C242.678 55.9733 242.598 56 242.504 56ZM242.864 49.16H246.044C247.044 49.16 247.824 48.88 248.384 48.32C248.958 47.76 249.244 46.9 249.244 45.74V45.5C249.244 44.34 248.958 43.4867 248.384 42.94C247.824 42.38 247.044 42.1 246.044 42.1H242.864V49.16Z" fill="#FFA339"/>
<path d="M268.758 56C268.665 56 268.578 55.9733 268.498 55.92C268.432 55.8533 268.398 55.76 268.398 55.64V41.74C268.398 41.62 268.432 41.5333 268.498 41.48C268.578 41.4133 268.665 41.38 268.758 41.38H275.878C275.998 41.38 276.085 41.42 276.138 41.5C276.192 41.5667 276.218 41.64 276.218 41.72C276.218 41.8133 276.185 41.9 276.118 41.98C276.065 42.06 275.985 42.1 275.878 42.1H269.118V48.32H272.318C272.425 48.32 272.505 48.36 272.558 48.44C272.625 48.5067 272.658 48.5933 272.658 48.7C272.658 48.78 272.632 48.86 272.578 48.94C272.525 49.0067 272.438 49.04 272.318 49.04H269.118V55.28H275.878C275.985 55.28 276.065 55.32 276.118 55.4C276.185 55.4667 276.218 55.5533 276.218 55.66C276.218 55.74 276.192 55.82 276.138 55.9C276.085 55.9667 275.998 56 275.878 56H268.758Z" fill="#FFA339"/>
<path d="M301.819 56C301.686 56 301.573 55.9133 301.479 55.74C301.386 55.5667 301.306 55.4133 301.239 55.28L298.039 49.04H295.079V55.64C295.079 55.76 295.039 55.8533 294.959 55.92C294.893 55.9733 294.813 56 294.719 56C294.626 56 294.539 55.9733 294.459 55.92C294.393 55.8533 294.359 55.76 294.359 55.64V41.72C294.359 41.6267 294.393 41.5533 294.459 41.5C294.526 41.4333 294.613 41.3933 294.719 41.38H298.059C298.793 41.38 299.473 41.5 300.099 41.74C300.726 41.9667 301.226 42.36 301.599 42.92C301.986 43.4667 302.179 44.2267 302.179 45.2C302.179 46.0533 302.026 46.7467 301.719 47.28C301.426 47.8133 301.026 48.2133 300.519 48.48C300.013 48.7467 299.446 48.92 298.819 49L302.119 55.42C302.146 55.46 302.159 55.5 302.159 55.54C302.173 55.58 302.179 55.6133 302.179 55.64C302.179 55.7067 302.159 55.7667 302.119 55.82C302.093 55.8733 302.053 55.92 301.999 55.96C301.946 55.9867 301.886 56 301.819 56ZM295.079 48.32H298.059C299.059 48.32 299.873 48.08 300.499 47.6C301.139 47.1067 301.459 46.3067 301.459 45.2C301.459 44.0933 301.139 43.3 300.499 42.82C299.873 42.34 299.059 42.1 298.059 42.1H295.079V48.32Z" fill="#FFA339"/>
<path d="M319.1 47.3L328.15 40.95V41.85L319.9 47.65V47.75L328.15 53.55V54.45L319.1 48.1V47.3Z" fill="black"/>
<path d="M334.84 60H333.99L342.14 38.25H342.99L334.84 60Z" fill="black"/>
<path d="M357.88 48.1L348.83 54.45V53.55L357.08 47.75V47.65L348.83 41.85V40.95L357.88 47.3V48.1Z" fill="black"/>
</svg>
