<svg width="363" height="60" viewBox="0 0 363 60" fill="none" xmlns="http://www.w3.org/2000/svg">
<path d="M1.08002 24.97C1.08002 24.73 1.17002 24.49 1.35002 24.25C1.55002 23.99 1.76002 23.86 1.98002 23.86C2.14002 23.86 2.34002 23.99 2.58002 24.25L3.42002 25.12C3.72002 25.44 4.19002 25.73 4.83002 25.99C5.49002 26.23 6.25002 26.35 7.11002 26.35C8.53002 26.35 9.63002 26 10.41 25.3C11.19 24.58 11.58 23.55 11.58 22.21C11.58 21.31 11.39 20.55 11.01 19.93C10.65 19.29 10.18 18.8 9.60002 18.46C9.04002 18.1 8.40002 17.78 7.68002 17.5L5.52002 16.66C4.80002 16.38 4.15002 16.05 3.57002 15.67C3.01002 15.27 2.54002 14.72 2.16002 14.02C1.80002 13.3 1.62002 12.45 1.62002 11.47C1.62002 10.43 1.81002 9.54001 2.19002 8.80001C2.59002 8.04001 3.12002 7.47001 3.78002 7.09001C4.44002 6.71001 5.11002 6.44001 5.79002 6.28001C6.49002 6.10001 7.22002 6.01002 7.98002 6.01002C9.20002 6.01002 10.34 6.19001 11.4 6.55001C12.48 6.89001 13.02 7.32001 13.02 7.84001C13.02 8.08001 12.93 8.33001 12.75 8.59001C12.59 8.83001 12.39 8.95001 12.15 8.95001C12.03 8.95001 11.8 8.86002 11.46 8.68002C11.12 8.48002 10.64 8.29001 10.02 8.11001C9.42002 7.91001 8.73002 7.81001 7.95002 7.81001C6.69002 7.81001 5.65002 8.08001 4.83002 8.62001C4.01002 9.16001 3.60002 10.05 3.60002 11.29C3.60002 12.15 3.84002 12.87 4.32002 13.45C4.82002 14.03 5.44002 14.45 6.18002 14.71C6.92002 14.97 7.72002 15.28 8.58002 15.64C9.44002 16 10.24 16.39 10.98 16.81C11.72 17.21 12.33 17.86 12.81 18.76C13.31 19.64 13.56 20.73 13.56 22.03C13.56 24.09 12.99 25.64 11.85 26.68C10.71 27.7 9.17002 28.21 7.23002 28.21C5.49002 28.21 4.03002 27.84 2.85002 27.1C1.67002 26.34 1.08002 25.63 1.08002 24.97ZM21.2742 7.00001C21.2742 6.76001 21.3342 6.55001 21.4542 6.37001C21.5942 6.17001 21.7842 6.07001 22.0242 6.07001H34.0542C34.2942 6.07001 34.4742 6.16001 34.5942 6.34001C34.7342 6.52001 34.8042 6.73001 34.8042 6.97001C34.8042 7.23001 34.7342 7.46001 34.5942 7.66001C34.4742 7.84001 34.2942 7.93001 34.0542 7.93001H29.0442V27.22C29.0442 27.46 28.9442 27.65 28.7442 27.79C28.5442 27.93 28.3142 28 28.0542 28C27.7742 28 27.5342 27.93 27.3342 27.79C27.1542 27.65 27.0642 27.46 27.0642 27.22V7.93001H22.0242C21.8042 7.93001 21.6242 7.84001 21.4842 7.66001C21.3442 7.48001 21.2742 7.26001 21.2742 7.00001ZM40.2277 27.16C40.2277 27.06 40.2377 26.99 40.2577 26.95L46.5277 6.58001C46.6677 6.12001 47.0577 5.89001 47.6977 5.89001C48.3377 5.89001 48.7377 6.12001 48.8977 6.58001L55.1377 26.95C55.1377 26.97 55.1377 27 55.1377 27.04C55.1577 27.08 55.1677 27.11 55.1677 27.13C55.1677 27.37 55.0377 27.58 54.7777 27.76C54.5177 27.92 54.2477 28 53.9677 28C53.5877 28 53.3377 27.83 53.2177 27.49L51.8377 22.87H43.5277L42.1477 27.49C42.0677 27.83 41.8077 28 41.3677 28C41.0877 28 40.8277 27.92 40.5877 27.76C40.3477 27.6 40.2277 27.4 40.2277 27.16ZM44.0377 21.16H51.3277L47.6977 9.07001L44.0377 21.16ZM64.0788 27.25V6.82001C64.0788 6.58001 64.1688 6.40001 64.3488 6.28001C64.5288 6.14001 64.7388 6.07001 64.9788 6.07001H75.5988C75.8388 6.07001 76.0188 6.16001 76.1388 6.34001C76.2788 6.50001 76.3488 6.70001 76.3488 6.94001C76.3488 7.20001 76.2788 7.43001 76.1388 7.63001C76.0188 7.81001 75.8388 7.90001 75.5988 7.90001H66.0588V16.15H70.7988C71.0188 16.15 71.1888 16.24 71.3088 16.42C71.4488 16.58 71.5188 16.79 71.5188 17.05C71.5188 17.59 71.2788 17.86 70.7988 17.86H66.0588V27.25C66.0588 27.49 65.9588 27.68 65.7588 27.82C65.5588 27.94 65.3288 28 65.0688 28C64.4088 28 64.0788 27.75 64.0788 27.25ZM84.903 27.25V6.82001C84.903 6.58001 84.993 6.40001 85.173 6.28001C85.353 6.14001 85.563 6.07001 85.803 6.07001H96.423C96.663 6.07001 96.843 6.16001 96.963 6.34001C97.103 6.50001 97.173 6.70001 97.173 6.94001C97.173 7.20001 97.103 7.43001 96.963 7.63001C96.843 7.81001 96.663 7.90001 96.423 7.90001H86.883V16.15H91.623C91.843 16.15 92.013 16.24 92.133 16.42C92.273 16.58 92.343 16.79 92.343 17.05C92.343 17.59 92.103 17.86 91.623 17.86H86.883V27.25C86.883 27.49 86.783 27.68 86.583 27.82C86.383 27.94 86.153 28 85.893 28C85.233 28 84.903 27.75 84.903 27.25ZM101.148 27.16C101.148 27.06 101.158 26.99 101.178 26.95L107.448 6.58001C107.588 6.12001 107.978 5.89001 108.618 5.89001C109.258 5.89001 109.658 6.12001 109.818 6.58001L116.058 26.95C116.058 26.97 116.058 27 116.058 27.04C116.078 27.08 116.088 27.11 116.088 27.13C116.088 27.37 115.958 27.58 115.698 27.76C115.438 27.92 115.168 28 114.888 28C114.508 28 114.258 27.83 114.138 27.49L112.758 22.87H104.448L103.068 27.49C102.988 27.83 102.728 28 102.288 28C102.008 28 101.748 27.92 101.508 27.76C101.268 27.6 101.148 27.4 101.148 27.16ZM104.958 21.16H112.248L108.618 9.07001L104.958 21.16ZM124.999 27.22V6.82001C124.999 6.32001 125.329 6.07001 125.989 6.07001C126.549 6.07001 127.069 6.53001 127.549 7.45001L135.649 23.41V6.79001C135.649 6.31001 135.979 6.07001 136.639 6.07001C137.299 6.07001 137.629 6.31001 137.629 6.79001V27.22C137.629 27.46 137.529 27.65 137.329 27.79C137.129 27.93 136.899 28 136.639 28C136.139 28 135.699 27.62 135.319 26.86L126.979 10.63V27.22C126.979 27.46 126.879 27.65 126.679 27.79C126.479 27.93 126.249 28 125.989 28C125.709 28 125.469 27.93 125.269 27.79C125.089 27.65 124.999 27.46 124.999 27.22Z" fill="#FFA339"/>
<path d="M148.08 24.97C148.08 24.73 148.17 24.49 148.35 24.25C148.55 23.99 148.76 23.86 148.98 23.86C149.14 23.86 149.34 23.99 149.58 24.25L150.42 25.12C150.72 25.44 151.19 25.73 151.83 25.99C152.49 26.23 153.25 26.35 154.11 26.35C155.53 26.35 156.63 26 157.41 25.3C158.19 24.58 158.58 23.55 158.58 22.21C158.58 21.31 158.39 20.55 158.01 19.93C157.65 19.29 157.18 18.8 156.6 18.46C156.04 18.1 155.4 17.78 154.68 17.5L152.52 16.66C151.8 16.38 151.15 16.05 150.57 15.67C150.01 15.27 149.54 14.72 149.16 14.02C148.8 13.3 148.62 12.45 148.62 11.47C148.62 10.43 148.81 9.54003 149.19 8.80003C149.59 8.04003 150.12 7.47003 150.78 7.09003C151.44 6.71003 152.11 6.44003 152.79 6.28003C153.49 6.10003 154.22 6.01003 154.98 6.01003C156.2 6.01003 157.34 6.19003 158.4 6.55003C159.48 6.89003 160.02 7.32003 160.02 7.84003C160.02 8.08003 159.93 8.33003 159.75 8.59003C159.59 8.83003 159.39 8.95003 159.15 8.95003C159.03 8.95003 158.8 8.86003 158.46 8.68003C158.12 8.48003 157.64 8.29002 157.02 8.11002C156.42 7.91002 155.73 7.81003 154.95 7.81003C153.69 7.81003 152.65 8.08003 151.83 8.62003C151.01 9.16003 150.6 10.05 150.6 11.29C150.6 12.15 150.84 12.87 151.32 13.45C151.82 14.03 152.44 14.45 153.18 14.71C153.92 14.97 154.72 15.28 155.58 15.64C156.44 16 157.24 16.39 157.98 16.81C158.72 17.21 159.33 17.86 159.81 18.76C160.31 19.64 160.56 20.73 160.56 22.03C160.56 24.09 159.99 25.64 158.85 26.68C157.71 27.7 156.17 28.21 154.23 28.21C152.49 28.21 151.03 27.84 149.85 27.1C148.67 26.34 148.08 25.63 148.08 24.97ZM168.274 7.00003C168.274 6.76003 168.334 6.55003 168.454 6.37003C168.594 6.17003 168.784 6.07003 169.024 6.07003H181.054C181.294 6.07003 181.474 6.16003 181.594 6.34003C181.734 6.52003 181.804 6.73003 181.804 6.97003C181.804 7.23003 181.734 7.46003 181.594 7.66003C181.474 7.84003 181.294 7.93003 181.054 7.93003H176.044V27.22C176.044 27.46 175.944 27.65 175.744 27.79C175.544 27.93 175.314 28 175.054 28C174.774 28 174.534 27.93 174.334 27.79C174.154 27.65 174.064 27.46 174.064 27.22V7.93003H169.024C168.804 7.93003 168.624 7.84003 168.484 7.66003C168.344 7.48003 168.274 7.26003 168.274 7.00003ZM190.548 27.22V6.79003C190.548 6.35003 190.798 6.11003 191.298 6.07003H196.608C198.548 6.07003 200.108 6.53003 201.288 7.45003C202.488 8.37003 203.088 9.88003 203.088 11.98C203.088 15.3 201.528 17.23 198.408 17.77L203.028 26.65C203.108 26.75 203.148 26.88 203.148 27.04C203.148 27.3 203.028 27.54 202.788 27.76C202.548 27.96 202.288 28.06 202.008 28.06C201.648 28.06 201.298 27.71 200.958 27.01L196.338 18.01H192.528V27.22C192.528 27.46 192.428 27.65 192.228 27.79C192.028 27.93 191.798 28 191.538 28C191.258 28 191.018 27.93 190.818 27.79C190.638 27.65 190.548 27.46 190.548 27.22ZM192.528 16.3H196.608C199.608 16.3 201.108 14.89 201.108 12.07C201.108 9.29003 199.608 7.90003 196.608 7.90003H192.528V16.3ZM212.186 21.76V12.46C212.186 10.26 212.746 8.65003 213.866 7.63003C215.006 6.59003 216.526 6.07003 218.426 6.07003C220.326 6.07003 221.836 6.59003 222.956 7.63003C224.096 8.65003 224.666 10.26 224.666 12.46V21.76C224.666 23.98 224.096 25.61 222.956 26.65C221.836 27.67 220.326 28.18 218.426 28.18C216.526 28.18 215.006 27.67 213.866 26.65C212.746 25.61 212.186 23.98 212.186 21.76ZM214.166 21.76C214.166 24.82 215.586 26.35 218.426 26.35C221.266 26.35 222.686 24.82 222.686 21.76V12.46C222.686 9.42003 221.266 7.90003 218.426 7.90003C215.586 7.90003 214.166 9.42003 214.166 12.46V21.76ZM215.486 1.48003C215.486 1.16003 215.586 0.900024 215.786 0.700024C216.006 0.500024 216.276 0.400024 216.596 0.400024C216.896 0.400024 217.146 0.500024 217.346 0.700024C217.566 0.900024 217.676 1.16003 217.676 1.48003C217.676 1.78003 217.566 2.04003 217.346 2.26003C217.146 2.48003 216.896 2.59003 216.596 2.59003C216.276 2.59003 216.006 2.48003 215.786 2.26003C215.586 2.04003 215.486 1.78003 215.486 1.48003ZM219.176 1.48003C219.176 1.16003 219.276 0.900024 219.476 0.700024C219.696 0.500024 219.966 0.400024 220.286 0.400024C220.606 0.400024 220.866 0.500024 221.066 0.700024C221.266 0.900024 221.366 1.16003 221.366 1.48003C221.366 1.78003 221.256 2.04003 221.036 2.26003C220.836 2.48003 220.586 2.59003 220.286 2.59003C219.966 2.59003 219.696 2.48003 219.476 2.26003C219.276 2.04003 219.176 1.78003 219.176 1.48003ZM234.979 27.22V7.03003C234.979 6.39003 235.309 6.07003 235.969 6.07003C236.549 6.07003 237.079 6.53003 237.559 7.45003L242.719 17.41L247.879 7.45003C248.359 6.53003 248.889 6.07003 249.469 6.07003C250.129 6.07003 250.459 6.39003 250.459 7.03003V27.22C250.459 27.46 250.359 27.65 250.159 27.79C249.979 27.93 249.749 28 249.469 28C249.209 28 248.979 27.93 248.779 27.79C248.579 27.65 248.479 27.46 248.479 27.22V10.36L243.499 19.78C243.279 20.2 243.009 20.41 242.689 20.41C242.389 20.41 242.129 20.2 241.909 19.78L236.959 10.27V27.22C236.959 27.46 236.859 27.65 236.659 27.79C236.459 27.93 236.229 28 235.969 28C235.689 28 235.449 27.93 235.249 27.79C235.069 27.65 234.979 27.46 234.979 27.22ZM259.818 24.97C259.818 24.73 259.908 24.49 260.088 24.25C260.288 23.99 260.498 23.86 260.718 23.86C260.878 23.86 261.078 23.99 261.318 24.25L262.158 25.12C262.458 25.44 262.928 25.73 263.568 25.99C264.228 26.23 264.988 26.35 265.848 26.35C267.268 26.35 268.368 26 269.148 25.3C269.928 24.58 270.318 23.55 270.318 22.21C270.318 21.31 270.128 20.55 269.748 19.93C269.388 19.29 268.918 18.8 268.338 18.46C267.778 18.1 267.138 17.78 266.418 17.5L264.258 16.66C263.538 16.38 262.888 16.05 262.308 15.67C261.748 15.27 261.278 14.72 260.898 14.02C260.538 13.3 260.358 12.45 260.358 11.47C260.358 10.43 260.548 9.54003 260.928 8.80003C261.328 8.04003 261.858 7.47003 262.518 7.09003C263.178 6.71003 263.848 6.44003 264.528 6.28003C265.228 6.10003 265.958 6.01003 266.718 6.01003C267.938 6.01003 269.078 6.19003 270.138 6.55003C271.218 6.89003 271.758 7.32003 271.758 7.84003C271.758 8.08003 271.668 8.33003 271.488 8.59003C271.328 8.83003 271.128 8.95003 270.888 8.95003C270.768 8.95003 270.538 8.86003 270.198 8.68003C269.858 8.48003 269.378 8.29002 268.758 8.11002C268.158 7.91002 267.468 7.81003 266.688 7.81003C265.428 7.81003 264.388 8.08003 263.568 8.62003C262.748 9.16003 262.338 10.05 262.338 11.29C262.338 12.15 262.578 12.87 263.058 13.45C263.558 14.03 264.178 14.45 264.918 14.71C265.658 14.97 266.458 15.28 267.318 15.64C268.178 16 268.978 16.39 269.718 16.81C270.458 17.21 271.068 17.86 271.548 18.76C272.048 19.64 272.298 20.73 272.298 22.03C272.298 24.09 271.728 25.64 270.588 26.68C269.448 27.7 267.908 28.21 265.968 28.21C264.228 28.21 262.768 27.84 261.588 27.1C260.408 26.34 259.818 25.63 259.818 24.97ZM281.843 27.22V6.79003C281.843 6.31003 282.173 6.07003 282.833 6.07003C283.493 6.07003 283.823 6.31003 283.823 6.79003V15.76H292.493V6.79003C292.493 6.31003 292.823 6.07003 293.483 6.07003C294.143 6.07003 294.473 6.31003 294.473 6.79003V27.22C294.473 27.46 294.373 27.65 294.173 27.79C293.973 27.93 293.743 28 293.483 28C293.203 28 292.963 27.93 292.763 27.79C292.583 27.65 292.493 27.46 292.493 27.22V17.47H283.823V27.22C283.823 27.46 283.723 27.65 283.522 27.79C283.323 27.93 283.093 28 282.833 28C282.553 28 282.313 27.93 282.113 27.79C281.933 27.65 281.843 27.46 281.843 27.22ZM304.8 21.76V12.46C304.8 10.26 305.36 8.65003 306.48 7.63003C307.62 6.59003 309.14 6.07003 311.04 6.07003C312.94 6.07003 314.45 6.59003 315.57 7.63003C316.71 8.65003 317.28 10.26 317.28 12.46V21.76C317.28 23.98 316.71 25.61 315.57 26.65C314.45 27.67 312.94 28.18 311.04 28.18C309.14 28.18 307.62 27.67 306.48 26.65C305.36 25.61 304.8 23.98 304.8 21.76ZM306.78 21.76C306.78 24.82 308.2 26.35 311.04 26.35C313.88 26.35 315.3 24.82 315.3 21.76V12.46C315.3 9.42003 313.88 7.90003 311.04 7.90003C308.2 7.90003 306.78 9.42003 306.78 12.46V21.76ZM327.593 27.22V6.79003C327.593 6.31003 327.923 6.07003 328.583 6.07003C329.243 6.07003 329.573 6.31003 329.573 6.79003V26.17H338.123C338.563 26.17 338.783 26.47 338.783 27.07C338.783 27.69 338.563 28 338.123 28H328.493C328.253 28 328.043 27.93 327.863 27.79C327.683 27.65 327.593 27.46 327.593 27.22ZM347.479 27.22V7.03003C347.479 6.39003 347.809 6.07003 348.469 6.07003C349.049 6.07003 349.579 6.53003 350.059 7.45003L355.219 17.41L360.379 7.45003C360.859 6.53003 361.389 6.07003 361.969 6.07003C362.629 6.07003 362.959 6.39003 362.959 7.03003V27.22C362.959 27.46 362.859 27.65 362.659 27.79C362.479 27.93 362.249 28 361.969 28C361.709 28 361.479 27.93 361.279 27.79C361.079 27.65 360.979 27.46 360.979 27.22V10.36L355.999 19.78C355.779 20.2 355.509 20.41 355.189 20.41C354.889 20.41 354.629 20.2 354.409 19.78L349.459 10.27V27.22C349.459 27.46 349.359 27.65 349.159 27.79C348.959 27.93 348.729 28 348.469 28C348.189 28 347.949 27.93 347.749 27.79C347.569 27.65 347.479 27.46 347.479 27.22Z" fill="black"/>
<path d="M0.440002 41.92C0.440002 41.7733 0.520002 41.6467 0.680002 41.54C0.840002 41.4333 1.01333 41.38 1.2 41.38C1.48 41.38 1.65333 41.4933 1.72 41.72L5.18 54L7.18 46.54C7.24667 46.2333 7.48 46.08 7.88 46.08C8.24 46.08 8.46667 46.2333 8.56 46.54L10.56 54L14.02 41.72C14.0867 41.4933 14.26 41.38 14.54 41.38C14.7267 41.38 14.9 41.4333 15.06 41.54C15.22 41.6467 15.3 41.7733 15.3 41.92C15.3 41.9867 15.2933 42.04 15.28 42.08L11.36 55.64C11.2533 55.96 10.9867 56.12 10.56 56.12C10.12 56.12 9.86 55.96 9.78 55.64L7.88 48.58L5.98 55.64C5.9 55.96 5.64 56.12 5.2 56.12C4.76 56.12 4.49333 55.96 4.4 55.64L0.460002 42.08C0.446669 42.04 0.440002 41.9867 0.440002 41.92ZM33.2622 55.48V41.88C33.2622 41.72 33.3222 41.6 33.4422 41.52C33.5622 41.4267 33.7022 41.38 33.8622 41.38H40.9822C41.3155 41.38 41.4822 41.5733 41.4822 41.96C41.4822 42.1333 41.4355 42.2867 41.3422 42.42C41.2622 42.54 41.1422 42.6 40.9822 42.6H34.5822V48.1H37.7222C37.8822 48.1 38.0022 48.16 38.0822 48.28C38.1755 48.3867 38.2222 48.5267 38.2222 48.7C38.2222 49.06 38.0555 49.24 37.7222 49.24H34.5822V54.78H40.9822C41.1289 54.78 41.2489 54.84 41.3422 54.96C41.4355 55.08 41.4822 55.2267 41.4822 55.4C41.4822 55.8 41.3155 56 40.9822 56H33.8622C33.7022 56 33.5622 55.9533 33.4422 55.86C33.3222 55.7667 33.2622 55.64 33.2622 55.48ZM59.4184 55.5V41.88C59.4184 41.72 59.4784 41.6 59.5984 41.52C59.7184 41.4267 59.8584 41.38 60.0184 41.38H63.2984C63.9118 41.38 64.4451 41.4267 64.8984 41.52C65.3518 41.6133 65.7718 41.78 66.1584 42.02C66.5584 42.26 66.8584 42.6133 67.0584 43.08C67.2718 43.5333 67.3784 44.1 67.3784 44.78C67.3784 45.6067 67.2251 46.3067 66.9184 46.88C66.6118 47.4533 66.1984 47.8533 65.6784 48.08C66.3451 48.3467 66.8518 48.7467 67.1984 49.28C67.5584 49.8133 67.7384 50.56 67.7384 51.52V51.88C67.7384 53.32 67.3784 54.3667 66.6584 55.02C65.9384 55.6733 64.9784 56 63.7784 56H60.0184C59.8318 56 59.6851 55.9533 59.5784 55.86C59.4718 55.7533 59.4184 55.6333 59.4184 55.5ZM60.7184 54.78H63.6184C65.4851 54.78 66.4184 53.7933 66.4184 51.82V51.48C66.4184 49.5867 65.4851 48.64 63.6184 48.64H60.7184V54.78ZM60.7184 47.5H63.3384C64.2851 47.5 64.9718 47.3067 65.3984 46.92C65.8384 46.52 66.0584 45.8533 66.0584 44.92C66.0584 44.0533 65.8184 43.4533 65.3384 43.12C64.8584 42.7733 64.1651 42.6 63.2584 42.6H60.7184V47.5Z" fill="black"/>
<path d="M86.1802 55.5V41.86C86.1802 41.7267 86.2335 41.6133 86.3402 41.52C86.4602 41.4267 86.6068 41.38 86.7802 41.38H90.3202C91.5868 41.38 92.6002 41.7267 93.3602 42.42C94.1202 43.1 94.5002 44.1733 94.5002 45.64V51.72C94.5002 53.2 94.1202 54.2867 93.3602 54.98C92.6002 55.66 91.5868 56 90.3202 56H86.7802C86.6068 56 86.4602 55.9533 86.3402 55.86C86.2335 55.7533 86.1802 55.6333 86.1802 55.5ZM87.5002 54.78H90.3202C91.2268 54.78 91.9268 54.5267 92.4202 54.02C92.9268 53.5 93.1802 52.7333 93.1802 51.72V45.64C93.1802 44.6267 92.9268 43.8667 92.4202 43.36C91.9268 42.8533 91.2268 42.6 90.3202 42.6H87.5002V54.78ZM113.372 55.48V41.88C113.372 41.72 113.432 41.6 113.552 41.52C113.672 41.4267 113.812 41.38 113.972 41.38H121.092C121.425 41.38 121.592 41.5733 121.592 41.96C121.592 42.1333 121.545 42.2867 121.452 42.42C121.372 42.54 121.252 42.6 121.092 42.6H114.692V48.1H117.832C117.992 48.1 118.112 48.16 118.192 48.28C118.285 48.3867 118.332 48.5267 118.332 48.7C118.332 49.06 118.165 49.24 117.832 49.24H114.692V54.78H121.092C121.238 54.78 121.358 54.84 121.452 54.96C121.545 55.08 121.592 55.2267 121.592 55.4C121.592 55.8 121.425 56 121.092 56H113.972C113.812 56 113.672 55.9533 113.552 55.86C113.432 55.7667 113.372 55.64 113.372 55.48ZM138.408 41.94C138.408 41.78 138.488 41.6467 138.648 41.54C138.808 41.4333 138.981 41.38 139.168 41.38C139.461 41.38 139.634 41.4933 139.688 41.72L143.388 54L147.068 41.72C147.148 41.4933 147.314 41.38 147.568 41.38C147.754 41.38 147.934 41.44 148.108 41.56C148.281 41.6667 148.368 41.8 148.368 41.96C148.368 41.9733 148.361 41.9933 148.348 42.02C148.348 42.0467 148.348 42.0667 148.348 42.08L144.188 55.64C144.094 55.96 143.828 56.12 143.388 56.12C142.961 56.12 142.701 55.96 142.608 55.64L138.428 42.08C138.414 42.0533 138.408 42.0067 138.408 41.94ZM166.29 55.48V41.88C166.29 41.72 166.35 41.6 166.47 41.52C166.59 41.4267 166.73 41.38 166.89 41.38H174.01C174.343 41.38 174.51 41.5733 174.51 41.96C174.51 42.1333 174.463 42.2867 174.37 42.42C174.29 42.54 174.17 42.6 174.01 42.6H167.61V48.1H170.75C170.91 48.1 171.03 48.16 171.11 48.28C171.203 48.3867 171.25 48.5267 171.25 48.7C171.25 49.06 171.083 49.24 170.75 49.24H167.61V54.78H174.01C174.156 54.78 174.276 54.84 174.37 54.96C174.463 55.08 174.51 55.2267 174.51 55.4C174.51 55.8 174.343 56 174.01 56H166.89C166.73 56 166.59 55.9533 166.47 55.86C166.35 55.7667 166.29 55.64 166.29 55.48ZM192.446 55.48V41.86C192.446 41.54 192.666 41.38 193.106 41.38C193.546 41.38 193.766 41.54 193.766 41.86V54.78H199.466C199.759 54.78 199.906 54.98 199.906 55.38C199.906 55.7933 199.759 56 199.466 56H193.046C192.886 56 192.746 55.9533 192.626 55.86C192.506 55.7667 192.446 55.64 192.446 55.48ZM217.231 51.84V45.64C217.231 44.1733 217.604 43.1 218.351 42.42C219.111 41.7267 220.124 41.38 221.391 41.38C222.658 41.38 223.664 41.7267 224.411 42.42C225.171 43.1 225.551 44.1733 225.551 45.64V51.84C225.551 53.32 225.171 54.4067 224.411 55.1C223.664 55.78 222.658 56.12 221.391 56.12C220.124 56.12 219.111 55.78 218.351 55.1C217.604 54.4067 217.231 53.32 217.231 51.84ZM218.551 51.84C218.551 53.88 219.498 54.9 221.391 54.9C223.284 54.9 224.231 53.88 224.231 51.84V45.64C224.231 43.6133 223.284 42.6 221.391 42.6C219.498 42.6 218.551 43.6133 218.551 45.64V51.84ZM244.426 55.48V41.86C244.426 41.5667 244.613 41.4067 244.986 41.38H248.666C249.92 41.38 250.92 41.72 251.666 42.4C252.413 43.08 252.786 44.1533 252.786 45.62V45.82C252.786 47.2867 252.406 48.3667 251.646 49.06C250.9 49.74 249.893 50.08 248.626 50.08H245.746V55.48C245.746 55.64 245.68 55.7667 245.546 55.86C245.413 55.9533 245.26 56 245.086 56C244.9 56 244.74 55.9533 244.606 55.86C244.486 55.7667 244.426 55.64 244.426 55.48ZM245.746 48.94H248.626C249.533 48.94 250.233 48.6867 250.726 48.18C251.22 47.6733 251.466 46.9067 251.466 45.88V45.64C251.466 43.6133 250.52 42.6 248.626 42.6H245.746V48.94ZM270.973 55.48V41.88C270.973 41.72 271.033 41.6 271.153 41.52C271.273 41.4267 271.413 41.38 271.573 41.38H278.693C279.026 41.38 279.193 41.5733 279.193 41.96C279.193 42.1333 279.146 42.2867 279.053 42.42C278.973 42.54 278.853 42.6 278.693 42.6H272.293V48.1H275.433C275.593 48.1 275.713 48.16 275.793 48.28C275.886 48.3867 275.933 48.5267 275.933 48.7C275.933 49.06 275.766 49.24 275.433 49.24H272.293V54.78H278.693C278.84 54.78 278.96 54.84 279.053 54.96C279.146 55.08 279.193 55.2267 279.193 55.4C279.193 55.8 279.026 56 278.693 56H271.573C271.413 56 271.273 55.9533 271.153 55.86C271.033 55.7667 270.973 55.64 270.973 55.48ZM297.129 55.48V41.86C297.129 41.5667 297.296 41.4067 297.629 41.38H301.169C302.463 41.38 303.503 41.6867 304.289 42.3C305.089 42.9133 305.489 43.92 305.489 45.32C305.489 47.5333 304.449 48.82 302.369 49.18L305.449 55.1C305.503 55.1667 305.529 55.2533 305.529 55.36C305.529 55.5333 305.449 55.6933 305.289 55.84C305.129 55.9733 304.956 56.04 304.769 56.04C304.529 56.04 304.296 55.8067 304.069 55.34L300.989 49.34H298.449V55.48C298.449 55.64 298.383 55.7667 298.249 55.86C298.116 55.9533 297.963 56 297.789 56C297.603 56 297.443 55.9533 297.309 55.86C297.189 55.7667 297.129 55.64 297.129 55.48ZM298.449 48.2H301.169C303.169 48.2 304.169 47.26 304.169 45.38C304.169 43.5267 303.169 42.6 301.169 42.6H298.449V48.2Z" fill="#FFA339"/>
<path d="M328.325 54.8L319 48.475V46.925L328.325 40.6V42.575L320.8 47.65V47.75L328.325 52.825V54.8ZM333.465 60L341.665 38.25H343.515L335.315 60H333.465ZM348.655 54.8V52.825L356.18 47.75V47.65L348.655 42.575V40.6L357.98 46.925V48.475L348.655 54.8Z" fill="black"/>
</svg>
